<svg width="136" height="32" viewBox="0 0 136 32" fill="none" xmlns="http://www.w3.org/2000/svg">
<path d="M131 0H31V32H131C133.761 32 136 29.7614 136 27V5C136 2.23858 133.761 0 131 0Z" fill="#0F1418"/>
<path d="M5 0.5H30.5V31.5H5C2.51472 31.5 0.5 29.4853 0.5 27V5C0.5 2.51472 2.51472 0.5 5 0.5Z" fill="white" stroke="#1C2125"/>
<mask id="mask0_23_20" style="mask-type:alpha" maskUnits="userSpaceOnUse" x="0" y="0" width="31" height="32">
<path d="M5 0.5H30.5V31.5H5C2.51472 31.5 0.5 29.4853 0.5 27V5C0.5 2.51472 2.51472 0.5 5 0.5Z" fill="white" stroke="#1C2125"/>
</mask>
<g mask="url(#mask0_23_20)">
<path fill-rule="evenodd" clip-rule="evenodd" d="M27 9.27424C27 6.91823 25.0445 5 22.6396 5H8.36035C5.9555 5 4 6.91027 4 9.27424V22.7258C4 25.0818 5.9555 27 8.36035 27H22.6396C25.0445 27 27 25.0897 27 22.7258V9.27424Z" fill="#FF0000"/>
<path d="M22.146 11.7802C20.9799 10.5495 19.3326 9.85415 17.6201 9.86214C15.9484 9.86214 14.244 10.5654 13.1513 11.7003C12.9555 11.6763 12.7517 11.6684 12.5478 11.6684C9.26141 11.6684 7.23085 14.3777 7.23085 16.8792C7.23901 18.2299 7.77723 19.5326 8.72319 20.5156C9.70992 21.5546 11.0962 22.138 12.5478 22.138H17.6201C21.0614 22.138 23.8586 19.3727 23.8586 15.9761C23.8422 14.4176 23.2388 12.9231 22.146 11.7802ZM12.4581 21.2589C10.0443 21.2589 8.05449 19.3088 8.05449 16.9351C8.05449 14.5775 10.028 12.6274 12.4418 12.6114C13.5182 12.6114 14.562 12.995 15.3694 13.7063L15.3938 13.7223L17.2205 15.5605C17.3592 15.7044 17.4407 15.8962 17.4407 16.096C17.4407 16.5195 17.09 16.8632 16.6578 16.8632C16.4458 16.8632 16.2419 16.7753 16.0952 16.6314L14.2766 14.8092C13.7629 14.3777 13.1186 14.1459 12.4418 14.1459C10.9005 14.1459 9.63653 15.3847 9.62837 16.8952C9.62837 18.4057 10.9413 19.6844 12.4989 19.6844H12.8577V19.6924C13.3796 20.3957 14.8148 21.2509 14.8148 21.2509H12.4581V21.2589ZM21.4855 19.7004C20.4988 20.7074 19.1369 21.2828 17.7098 21.2828C16.3561 21.2828 14.9779 20.6914 13.9178 19.6604L11.504 17.2868C11.3572 17.1429 11.2838 16.9511 11.2756 16.7513C11.2756 16.3277 11.6345 15.9841 12.0585 15.9841C12.2705 15.9841 12.4744 16.064 12.6212 16.2158L15.0187 18.5735C15.7771 19.3248 16.7557 19.7484 17.7017 19.7484C18.7047 19.7484 19.667 19.3408 20.352 18.6215C21.0614 17.9102 21.4529 16.9511 21.4529 15.9601C21.4529 13.9381 19.7485 12.2678 17.6853 12.2678C16.8943 12.2678 16.2338 12.4196 15.5977 12.8672C15.5896 12.8592 15.4183 12.7473 15.2226 12.6354C15.1084 12.5635 14.9861 12.4995 14.8638 12.4356C14.7496 12.3717 14.4234 12.2198 14.2277 12.1399C14.1788 12.1239 14.138 12.1079 14.0891 12.0919H14.0972C15.0921 11.1808 16.3235 10.7413 17.6853 10.7413C20.6129 10.7413 23.0268 13.1069 23.0268 15.9761C23.0431 17.3587 22.4885 18.7014 21.4855 19.7004Z" fill="white"/>
</g>
<path d="M58.3632 22H55.785L55.038 19.6636H51.3026L50.5629 22H47.9994L51.8226 11.4971H54.6278L58.3632 22ZM54.496 17.8472L53.368 14.3169C53.285 14.0532 53.2264 13.7383 53.1923 13.3721H53.1337C53.1093 13.6797 53.0482 13.9849 52.9506 14.2876L51.808 17.8472H54.496ZM67.2297 22H64.9152V20.9673H64.8859C64.3586 21.7778 63.5847 22.1831 62.5642 22.1831C61.6267 22.1831 60.8723 21.8535 60.301 21.1943C59.7297 20.5303 59.444 19.605 59.444 18.4185C59.444 17.1782 59.759 16.1846 60.3889 15.4375C61.0187 14.6904 61.8439 14.3169 62.8645 14.3169C63.8312 14.3169 64.5051 14.6636 64.8859 15.3569H64.9152V10.8965H67.2297V22ZM64.9592 18.3525V17.7886C64.9592 17.3003 64.8176 16.895 64.5344 16.5728C64.2512 16.2505 63.8825 16.0894 63.4284 16.0894C62.9157 16.0894 62.5153 16.292 62.2272 16.6973C61.9392 17.0977 61.7951 17.6494 61.7951 18.3525C61.7951 19.0117 61.9343 19.5195 62.2126 19.876C62.4909 20.2324 62.8767 20.4106 63.3698 20.4106C63.8386 20.4106 64.2194 20.2227 64.5124 19.8467C64.8103 19.4707 64.9592 18.9727 64.9592 18.3525ZM72.9321 22.1831C71.6821 22.1831 70.6983 21.834 69.9805 21.1357C69.2676 20.4326 68.9112 19.4805 68.9112 18.2793C68.9112 17.0391 69.2822 16.0698 70.0244 15.3716C70.7666 14.6685 71.77 14.3169 73.0347 14.3169C74.2798 14.3169 75.2564 14.6685 75.9644 15.3716C76.6724 16.0698 77.0264 16.9951 77.0264 18.1475C77.0264 19.3926 76.6602 20.3765 75.9278 21.0991C75.2002 21.8218 74.2017 22.1831 72.9321 22.1831ZM72.9907 16.0894C72.4439 16.0894 72.0191 16.2773 71.7163 16.6533C71.4136 17.0293 71.2622 17.5615 71.2622 18.25C71.2622 19.6904 71.8433 20.4106 73.0054 20.4106C74.1138 20.4106 74.668 19.6709 74.668 18.1914C74.668 16.79 74.1089 16.0894 72.9907 16.0894ZM81.0516 21.1284H81.0223V22H78.7079V10.8965H81.0223V15.6279H81.0516C81.6229 14.7539 82.4359 14.3169 83.4906 14.3169C84.4574 14.3169 85.202 14.6489 85.7245 15.313C86.2469 15.9771 86.5081 16.8853 86.5081 18.0376C86.5081 19.2876 86.203 20.291 85.5926 21.0479C84.9823 21.8047 84.1668 22.1831 83.1463 22.1831C82.2235 22.1831 81.5252 21.8315 81.0516 21.1284ZM80.9857 17.9644V18.7334C80.9857 19.2168 81.1248 19.6172 81.4032 19.9346C81.6815 20.252 82.0379 20.4106 82.4725 20.4106C82.9998 20.4106 83.4076 20.208 83.6956 19.8027C83.9886 19.3926 84.1351 18.814 84.1351 18.0669C84.1351 17.4468 84.0008 16.9634 83.7323 16.6167C83.4686 16.2651 83.0902 16.0894 82.597 16.0894C82.1331 16.0894 81.7474 16.2627 81.4398 16.6094C81.1371 16.9561 80.9857 17.4077 80.9857 17.9644ZM94.9279 18.9092H90.0353C90.1134 19.998 90.7995 20.5425 92.0934 20.5425C92.9186 20.5425 93.6437 20.3472 94.2687 19.9565V21.6265C93.5754 21.9976 92.6745 22.1831 91.5661 22.1831C90.3551 22.1831 89.4152 21.8486 88.7463 21.1797C88.0773 20.5059 87.7428 19.5684 87.7428 18.3672C87.7428 17.1221 88.1042 16.1357 88.8268 15.4082C89.5495 14.6807 90.4381 14.3169 91.4928 14.3169C92.5866 14.3169 93.4313 14.6416 94.027 15.291C94.6276 15.9404 94.9279 16.8218 94.9279 17.9351V18.9092ZM92.7819 17.4883C92.7819 16.4141 92.3473 15.877 91.4782 15.877C91.1071 15.877 90.7848 16.0308 90.5114 16.3384C90.2428 16.646 90.0793 17.0293 90.0207 17.4883H92.7819ZM108.83 21.6265C108.064 21.9976 107.063 22.1831 105.827 22.1831C104.216 22.1831 102.949 21.7095 102.026 20.7622C101.103 19.8149 100.642 18.5527 100.642 16.9756C100.642 15.2959 101.159 13.9336 102.195 12.8887C103.235 11.8438 104.582 11.3213 106.238 11.3213C107.263 11.3213 108.127 11.4507 108.83 11.7095V13.9873C108.127 13.5674 107.326 13.3574 106.428 13.3574C105.442 13.3574 104.646 13.6675 104.04 14.2876C103.435 14.9077 103.132 15.7476 103.132 16.8071C103.132 17.8228 103.418 18.6333 103.989 19.2388C104.56 19.8394 105.329 20.1396 106.296 20.1396C107.219 20.1396 108.064 19.915 108.83 19.4658V21.6265ZM118.444 21.6265C117.677 21.9976 116.676 22.1831 115.441 22.1831C113.83 22.1831 112.563 21.7095 111.64 20.7622C110.717 19.8149 110.255 18.5527 110.255 16.9756C110.255 15.2959 110.773 13.9336 111.808 12.8887C112.848 11.8438 114.196 11.3213 115.851 11.3213C116.877 11.3213 117.741 11.4507 118.444 11.7095V13.9873C117.741 13.5674 116.94 13.3574 116.042 13.3574C115.055 13.3574 114.259 13.6675 113.654 14.2876C113.048 14.9077 112.746 15.7476 112.746 16.8071C112.746 17.8228 113.031 18.6333 113.603 19.2388C114.174 19.8394 114.943 20.1396 115.91 20.1396C116.833 20.1396 117.677 19.915 118.444 19.4658V21.6265Z" fill="white"/>
<path d="M131 0H5C2.23858 0 0 2.23858 0 5V27C0 29.7614 2.23857 32 5 32H131C133.761 32 136 29.7614 136 27V5C136 2.23858 133.761 0 131 0Z" fill="url(#paint0_linear_23_20)"/>
<defs>
<linearGradient id="paint0_linear_23_20" x1="0" y1="0" x2="0" y2="32" gradientUnits="userSpaceOnUse">
<stop stop-color="#BBBBBB" stop-opacity="0.1"/>
<stop offset="1" stop-opacity="0.1"/>
</linearGradient>
</defs>
</svg>
