<svg width="136" height="32" viewBox="0 0 136 32" fill="none" xmlns="http://www.w3.org/2000/svg">
<path d="M131 0H31V32H131C133.761 32 136 29.7614 136 27V5C136 2.23858 133.761 0 131 0Z" fill="#0F1418"/>
<path d="M5 0.5H30.5V31.5H5C2.51472 31.5 0.5 29.4853 0.5 27V5C0.5 2.51472 2.51472 0.5 5 0.5Z" fill="white" stroke="#1C2125"/>
<mask id="mask0_23_2" style="mask-type:alpha" maskUnits="userSpaceOnUse" x="0" y="0" width="31" height="32">
<path d="M5 0.5H30.5V31.5H5C2.51472 31.5 0.5 29.4853 0.5 27V5C0.5 2.51472 2.51472 0.5 5 0.5Z" fill="white" stroke="#1C2125"/>
</mask>
<g mask="url(#mask0_23_2)">
<path d="M10.75 30C13.372 30 15.5 27.9093 15.5 25.3333V20.6667H10.75C8.128 20.6667 6 22.7573 6 25.3333C6 27.9093 8.128 30 10.75 30Z" fill="#0ACF83"/>
<path d="M6 16C6 13.424 8.128 11.3333 10.75 11.3333H15.5V20.6667H10.75C8.128 20.6667 6 18.576 6 16Z" fill="#A259FF"/>
<path d="M6 6.66667C6 4.09067 8.128 2 10.75 2H15.5V11.3333H10.75C8.128 11.3333 6 9.24267 6 6.66667Z" fill="#F24E1E"/>
<path d="M15.5 2H20.25C22.872 2 25 4.09067 25 6.66667C25 9.24267 22.872 11.3333 20.25 11.3333L15.5 11.3333V2Z" fill="#FF7262"/>
<path d="M25 16C25 18.576 22.872 20.6667 20.25 20.6667C17.628 20.6667 15.5 18.576 15.5 16C15.5 13.424 17.628 11.3333 20.25 11.3333C22.872 11.3333 25 13.424 25 16Z" fill="#1ABCFE"/>
</g>
<path d="M68.8285 13.4233H65.1224V16.0015H68.5282V17.9204H65.1224V22H62.7567V11.4971H68.8285V13.4233ZM71.9528 13.3135C71.5622 13.3135 71.2424 13.1987 70.9933 12.9692C70.7443 12.7349 70.6198 12.4492 70.6198 12.1123C70.6198 11.7656 70.7443 11.4824 70.9933 11.2627C71.2424 11.043 71.5622 10.9331 71.9528 10.9331C72.3483 10.9331 72.6681 11.043 72.9123 11.2627C73.1613 11.4824 73.2858 11.7656 73.2858 12.1123C73.2858 12.4639 73.1613 12.752 72.9123 12.9766C72.6681 13.2012 72.3483 13.3135 71.9528 13.3135ZM73.0954 22H70.7809V14.5H73.0954V22ZM82.5771 21.1431C82.5771 22.5347 82.1743 23.6113 81.3687 24.373C80.563 25.1396 79.396 25.5229 77.8677 25.5229C76.8569 25.5229 76.0562 25.3789 75.4653 25.0908V23.1426C76.2368 23.5918 77.0156 23.8164 77.8018 23.8164C78.583 23.8164 79.1885 23.6089 79.6182 23.1938C80.0479 22.7837 80.2627 22.2246 80.2627 21.5166V20.9233H80.2334C79.7061 21.7632 78.9272 22.1831 77.897 22.1831C76.9399 22.1831 76.1807 21.8462 75.6191 21.1724C75.0576 20.4985 74.7769 19.5952 74.7769 18.4624C74.7769 17.1929 75.0894 16.1846 75.7144 15.4375C76.3394 14.6904 77.1621 14.3169 78.1826 14.3169C79.0957 14.3169 79.7793 14.6685 80.2334 15.3716H80.2627V14.5H82.5771V21.1431ZM80.292 18.3965V17.8032C80.292 17.3296 80.1504 16.9268 79.8672 16.5947C79.5889 16.2578 79.2251 16.0894 78.7759 16.0894C78.2632 16.0894 77.8604 16.2896 77.5674 16.6899C77.2744 17.0903 77.1279 17.6543 77.1279 18.3818C77.1279 19.0068 77.2671 19.5024 77.5454 19.8687C77.8237 20.23 78.2046 20.4106 78.688 20.4106C79.1665 20.4106 79.5522 20.2275 79.8452 19.8613C80.1431 19.4902 80.292 19.002 80.292 18.3965ZM96.5999 22H94.2928V17.7227C94.2928 16.6338 93.8924 16.0894 93.0916 16.0894C92.7108 16.0894 92.4007 16.2529 92.1614 16.5801C91.9222 16.9072 91.8026 17.3149 91.8026 17.8032V22H89.4881V17.6787C89.4881 16.6191 89.095 16.0894 88.3089 16.0894C87.9134 16.0894 87.596 16.2456 87.3568 16.5581C87.1224 16.8706 87.0052 17.2954 87.0052 17.8325V22H84.6907V14.5H87.0052V15.6719H87.0345C87.2738 15.2715 87.6082 14.9468 88.0379 14.6978C88.4725 14.4438 88.9461 14.3169 89.4588 14.3169C90.5184 14.3169 91.2435 14.7832 91.6341 15.7158C92.2054 14.7832 93.0452 14.3169 94.1536 14.3169C95.7845 14.3169 96.5999 15.3228 96.5999 17.3345V22ZM104.851 22H102.661V20.9233H102.632C102.129 21.7632 101.384 22.1831 100.398 22.1831C99.6705 22.1831 99.0968 21.978 98.6769 21.5679C98.2619 21.1528 98.0543 20.6011 98.0543 19.9126C98.0543 18.4575 98.9162 17.6177 100.64 17.3931L102.676 17.1221C102.676 16.3018 102.232 15.8916 101.343 15.8916C100.449 15.8916 99.5997 16.1577 98.7941 16.6899V14.9468C99.1163 14.7808 99.5558 14.6343 100.112 14.5073C100.674 14.3804 101.184 14.3169 101.643 14.3169C103.782 14.3169 104.851 15.3838 104.851 17.5176V22ZM102.676 18.9531V18.4478L101.314 18.6235C100.562 18.7212 100.186 19.0605 100.186 19.6416C100.186 19.9053 100.276 20.1226 100.457 20.2935C100.642 20.4595 100.891 20.5425 101.204 20.5425C101.638 20.5425 101.992 20.3936 102.266 20.0957C102.539 19.793 102.676 19.4121 102.676 18.9531Z" fill="white"/>
<path d="M131 0H5C2.23858 0 0 2.23858 0 5V27C0 29.7614 2.23857 32 5 32H131C133.761 32 136 29.7614 136 27V5C136 2.23858 133.761 0 131 0Z" fill="url(#paint0_linear_23_2)"/>
<defs>
<linearGradient id="paint0_linear_23_2" x1="0" y1="0" x2="0" y2="32" gradientUnits="userSpaceOnUse">
<stop stop-color="#BBBBBB" stop-opacity="0.1"/>
<stop offset="1" stop-opacity="0.1"/>
</linearGradient>
</defs>
</svg>
