<svg width="136" height="32" viewBox="0 0 136 32" fill="none" xmlns="http://www.w3.org/2000/svg">
<path d="M131 0H31V32H131C133.761 32 136 29.7614 136 27V5C136 2.23858 133.761 0 131 0Z" fill="#0F1418"/>
<path d="M5 0.5H30.5V31.5H5C2.51472 31.5 0.5 29.4853 0.5 27V5C0.5 2.51472 2.51472 0.5 5 0.5Z" fill="white" stroke="#1C2125"/>
<mask id="mask0_23_11" style="mask-type:alpha" maskUnits="userSpaceOnUse" x="0" y="0" width="31" height="32">
<path d="M5 0.5H30.5V31.5H5C2.51472 31.5 0.5 29.4853 0.5 27V5C0.5 2.51472 2.51472 0.5 5 0.5Z" fill="white" stroke="#1C2125"/>
</mask>
<g mask="url(#mask0_23_11)">
<path d="M8.66129 5.75688L15.9738 5L23.2863 5.75688L28.9476 13.1974L15.9738 27.9886L3 13.1974L8.66129 5.75688Z" fill="#FDB300"/>
<path d="M8.25504 13.1974L15.9738 27.9886L3 13.1974H8.25504Z" fill="#EA6C00"/>
<path d="M23.6925 13.1974L15.9738 27.9886L28.9476 13.1974H23.6925Z" fill="#EA6C00"/>
<path d="M8.25504 13.1974H23.6925L15.9738 27.9886L8.25504 13.1974Z" fill="#FDAD00"/>
<path d="M15.9738 5L8.66129 5.75688L8.25504 13.1974L15.9738 5Z" fill="#FDD231"/>
<path d="M15.9738 5L23.2863 5.75688L23.6925 13.1974L15.9738 5Z" fill="#FDD231"/>
<path d="M28.9476 13.1974L23.2863 5.75688L23.6925 13.1974H28.9476Z" fill="#FDAD00"/>
<path d="M3 13.1974L8.66129 5.75688L8.25504 13.1974H3Z" fill="#FDAD00"/>
<path d="M15.9738 5L8.25504 13.1974H23.6925L15.9738 5Z" fill="#FEEEB7"/>
</g>
<path d="M60.4035 21.5972V19.2534C60.8283 19.6099 61.2897 19.8784 61.7878 20.0591C62.2858 20.2349 62.7888 20.3228 63.2966 20.3228C63.5944 20.3228 63.8532 20.2959 64.0729 20.2422C64.2976 20.1885 64.4831 20.1152 64.6296 20.0225C64.781 19.9248 64.8933 19.8125 64.9665 19.6855C65.0397 19.5537 65.0764 19.4121 65.0764 19.2607C65.0764 19.0557 65.0178 18.8726 64.9006 18.7114C64.7834 18.5503 64.6223 18.4014 64.4172 18.2646C64.217 18.1279 63.9777 17.9961 63.6994 17.8691C63.4211 17.7422 63.1208 17.6128 62.7985 17.481C61.9782 17.1392 61.3654 16.7217 60.9602 16.2285C60.5598 15.7354 60.3596 15.1396 60.3596 14.4414C60.3596 13.8945 60.4694 13.4258 60.6892 13.0352C60.9089 12.6396 61.2067 12.3149 61.5827 12.061C61.9636 11.8071 62.403 11.6216 62.9011 11.5044C63.3991 11.3823 63.9265 11.3213 64.4831 11.3213C65.03 11.3213 65.5134 11.3555 65.9333 11.4238C66.3581 11.4873 66.7487 11.5874 67.1052 11.7241V13.9141C66.9294 13.792 66.7365 13.6846 66.5266 13.5918C66.3215 13.499 66.1091 13.4233 65.8894 13.3647C65.6696 13.3013 65.4499 13.2549 65.2302 13.2256C65.0153 13.1963 64.8103 13.1816 64.6149 13.1816C64.3464 13.1816 64.1022 13.2085 63.8825 13.2622C63.6628 13.311 63.4772 13.3818 63.3259 13.4746C63.1745 13.5674 63.0573 13.6797 62.9743 13.8115C62.8913 13.9385 62.8498 14.0825 62.8498 14.2437C62.8498 14.4194 62.8962 14.5781 62.989 14.7197C63.0817 14.8564 63.2136 14.9883 63.3845 15.1152C63.5554 15.2373 63.7629 15.3594 64.007 15.4814C64.2512 15.5986 64.5271 15.7207 64.8347 15.8477C65.2546 16.0234 65.6306 16.2114 65.9626 16.4116C66.2995 16.6069 66.5876 16.8291 66.8269 17.0781C67.0661 17.3271 67.2492 17.6128 67.3762 17.9351C67.5031 18.2524 67.5666 18.6235 67.5666 19.0483C67.5666 19.6343 67.4543 20.1274 67.2297 20.5278C67.01 20.9233 66.7097 21.2456 66.3288 21.4946C65.9479 21.7388 65.5036 21.9146 64.9958 22.022C64.4929 22.1294 63.9606 22.1831 63.3991 22.1831C62.8229 22.1831 62.2736 22.1343 61.7512 22.0366C61.2336 21.939 60.7844 21.7925 60.4035 21.5972ZM77.0264 22H74.2505L71.8555 18.2793H71.8262V22H69.5117V10.8965H71.8262V17.9644H71.8555L74.0894 14.5H76.836L74.148 18.0229L77.0264 22ZM84.6038 18.9092H79.7113C79.7894 19.998 80.4754 20.5425 81.7694 20.5425C82.5946 20.5425 83.3197 20.3472 83.9447 19.9565V21.6265C83.2513 21.9976 82.3504 22.1831 81.242 22.1831C80.0311 22.1831 79.0912 21.8486 78.4222 21.1797C77.7533 20.5059 77.4188 19.5684 77.4188 18.3672C77.4188 17.1221 77.7801 16.1357 78.5028 15.4082C79.2254 14.6807 80.1141 14.3169 81.1688 14.3169C82.2625 14.3169 83.1073 14.6416 83.703 15.291C84.3036 15.9404 84.6038 16.8218 84.6038 17.9351V18.9092ZM82.4579 17.4883C82.4579 16.4141 82.0233 15.877 81.1541 15.877C80.783 15.877 80.4608 16.0308 80.1873 16.3384C79.9188 16.646 79.7552 17.0293 79.6966 17.4883H82.4579ZM90.6945 21.9121C90.3527 22.0928 89.8376 22.1831 89.1491 22.1831C87.5182 22.1831 86.7028 21.3359 86.7028 19.6416V16.2065H85.487V14.5H86.7028V12.8813L89.0099 12.2222V14.5H90.6945V16.2065H89.0099V19.2388C89.0099 20.02 89.32 20.4106 89.9401 20.4106C90.1842 20.4106 90.4357 20.3398 90.6945 20.1982V21.9121ZM97.8105 21.729C97.2881 22.0317 96.5337 22.1831 95.5473 22.1831C94.395 22.1831 93.4624 21.834 92.7495 21.1357C92.0366 20.4375 91.6802 19.5366 91.6802 18.4331C91.6802 17.1587 92.061 16.1553 92.8227 15.4229C93.5893 14.6855 94.6123 14.3169 95.8916 14.3169C96.7754 14.3169 97.415 14.4341 97.8105 14.6685V16.6313C97.3271 16.27 96.7876 16.0894 96.1919 16.0894C95.5278 16.0894 95.0005 16.2847 94.6098 16.6753C94.2241 17.061 94.0312 17.5957 94.0312 18.2793C94.0312 18.9434 94.2168 19.4658 94.5879 19.8467C94.959 20.2227 95.4692 20.4106 96.1186 20.4106C96.6948 20.4106 97.2588 20.23 97.8105 19.8687V21.729ZM106.714 22H104.407V17.7373C104.407 16.6387 104.006 16.0894 103.205 16.0894C102.795 16.0894 102.463 16.2432 102.209 16.5508C101.955 16.8584 101.828 17.249 101.828 17.7227V22H99.514V10.8965H101.828V15.6133H101.858C102.424 14.749 103.193 14.3169 104.165 14.3169C105.864 14.3169 106.714 15.3423 106.714 17.3931V22Z" fill="white"/>
<path d="M131 0H5C2.23858 0 0 2.23858 0 5V27C0 29.7614 2.23857 32 5 32H131C133.761 32 136 29.7614 136 27V5C136 2.23858 133.761 0 131 0Z" fill="url(#paint0_linear_23_11)"/>
<defs>
<linearGradient id="paint0_linear_23_11" x1="0" y1="0" x2="0" y2="32" gradientUnits="userSpaceOnUse">
<stop stop-color="#BBBBBB" stop-opacity="0.1"/>
<stop offset="1" stop-opacity="0.1"/>
</linearGradient>
</defs>
</svg>
