<svg width="136" height="32" viewBox="0 0 136 32" fill="none" xmlns="http://www.w3.org/2000/svg">
<path d="M131 0H31V32H131C133.761 32 136 29.7614 136 27V5C136 2.23858 133.761 0 131 0Z" fill="#0F1418"/>
<path d="M5 0.5H30.5V31.5H5C2.51472 31.5 0.5 29.4853 0.5 27V5C0.5 2.51472 2.51472 0.5 5 0.5Z" fill="white" stroke="#1C2125"/>
<mask id="mask0_20_265" style="mask-type:alpha" maskUnits="userSpaceOnUse" x="0" y="0" width="31" height="32">
<path d="M5 0.5H30.5V31.5H5C2.51472 31.5 0.5 29.4853 0.5 27V5C0.5 2.51472 2.51472 0.5 5 0.5Z" fill="white" stroke="#1C2125"/>
</mask>
<g mask="url(#mask0_20_265)">
<path d="M10.0662 20V14.1177H10.375V15.0431C10.4115 15.0021 10.4451 14.9585 10.4758 14.9127C10.602 14.6419 10.8002 14.4138 11.0472 14.2553C11.2943 14.0968 11.5799 14.0144 11.8706 14.0178C12.5743 13.9961 13.1456 14.2654 13.4817 14.9127C13.6956 15.3148 13.8133 15.7641 13.825 16.2228C13.8367 16.6816 13.742 17.1366 13.549 17.5498C13.236 18.2753 12.463 18.6359 11.6353 18.5034C11.3778 18.4807 11.1298 18.3917 10.9141 18.2444C10.6983 18.0972 10.5217 17.8965 10.4002 17.6606V20H10.0662ZM10.375 16.1987C10.4023 16.4854 10.4128 16.6896 10.4443 16.8894C10.5661 17.6758 11.0157 18.1428 11.7215 18.2275C12.0529 18.2838 12.3929 18.2196 12.6836 18.0457C12.9743 17.8718 13.1978 17.599 13.3158 17.2739C13.4514 16.9395 13.5167 16.579 13.5073 16.2165C13.4979 15.854 13.414 15.4976 13.2612 15.1712C13.1352 14.8798 12.9209 14.6387 12.6507 14.4843C12.3805 14.3299 12.0691 14.2706 11.7635 14.3154C11.4765 14.3369 11.2032 14.4503 10.9814 14.6399C10.7597 14.8295 10.6006 15.0858 10.5262 15.3732C10.4604 15.6451 10.4099 15.9207 10.375 16.1987ZM20.1238 16.998C20.077 17.4122 19.8863 17.7947 19.5873 18.0744C19.2882 18.3541 18.9011 18.5119 18.4979 18.5186C17.204 18.5859 16.5969 17.6975 16.5003 16.6722C16.4332 16.1154 16.5206 15.5504 16.7523 15.0431C16.9137 14.6951 17.178 14.4092 17.5069 14.2268C17.8358 14.0444 18.2123 13.975 18.5819 14.0286C18.9333 14.0594 19.2664 14.2038 19.5341 14.4412C19.8018 14.6786 19.9904 14.9971 20.0733 15.3515C20.1391 15.6743 20.1875 16.0006 20.2183 16.329H16.8175C16.7544 17.2587 17.2376 18.0059 17.9224 18.1862C18.7752 18.4034 19.5041 18.0211 19.7688 17.1827C19.8276 16.9676 19.9347 16.9372 20.1238 16.998ZM16.8175 16.0314H19.857C19.8381 15.0409 19.2415 14.3241 18.4328 14.3132C17.5169 14.298 16.8574 14.9888 16.8175 16.0314ZM20.7497 17.0198H21.048C21.059 17.2467 21.1303 17.4661 21.2541 17.6539C21.3779 17.8417 21.5493 17.9906 21.7496 18.0841C22.0011 18.2012 22.2748 18.258 22.5505 18.2505C22.8262 18.243 23.0967 18.1713 23.3418 18.0407C23.4754 17.9784 23.5874 17.8752 23.6625 17.7451C23.7376 17.615 23.7723 17.4642 23.762 17.313C23.7696 17.1672 23.7311 17.0228 23.6523 16.9017C23.5734 16.7805 23.4585 16.6893 23.325 16.6418C22.9973 16.5158 22.6486 16.4463 22.3147 16.3355C21.9671 16.2332 21.6273 16.1047 21.298 15.951C20.7602 15.6795 20.7266 14.6217 21.3358 14.2871C21.6477 14.1051 21.9987 14.0068 22.3569 14.0011C22.715 13.9954 23.0688 14.0825 23.386 14.2546C23.5781 14.3644 23.7333 14.5321 23.8309 14.7355C23.9285 14.9389 23.9638 15.1681 23.9321 15.3928H23.6758C23.6758 15.3797 23.6527 15.3689 23.6527 15.3559C23.6212 14.5109 22.9364 14.2502 22.2012 14.3241C21.9818 14.3521 21.7686 14.4189 21.5711 14.5217C21.4524 14.5779 21.3535 14.6707 21.288 14.7874C21.2225 14.9041 21.1937 15.039 21.2056 15.1734C21.2059 15.3078 21.2465 15.4389 21.3217 15.5485C21.3969 15.6582 21.5031 15.7411 21.6257 15.7859C21.9492 15.9076 22.2873 15.9858 22.6192 16.0814C22.886 16.1574 23.1633 16.2074 23.4217 16.2986C23.604 16.3604 23.7639 16.478 23.8802 16.6359C23.9965 16.7938 24.0637 16.9844 24.0728 17.1827C24.104 17.3999 24.0682 17.6217 23.9706 17.8166C23.8729 18.0116 23.7183 18.1698 23.5288 18.2688C22.8272 18.6793 21.6719 18.5707 21.1572 18.0515C21.0268 17.9159 20.9236 17.7549 20.8537 17.5778C20.7838 17.4007 20.7484 17.211 20.7497 17.0198ZM27.8539 15.3928H27.5745C27.5745 15.3537 27.5598 15.3189 27.5556 15.2863C27.5511 15.0698 27.4747 14.8614 27.3393 14.6961C27.204 14.5308 27.0178 14.4187 26.812 14.3784C26.4237 14.2632 26.0094 14.2838 25.6336 14.437C25.485 14.4811 25.3542 14.5736 25.2607 14.7008C25.1672 14.8281 25.116 14.9832 25.1147 15.143C25.1095 15.2999 25.1568 15.4539 25.2487 15.579C25.3405 15.704 25.4713 15.7925 25.6189 15.8294C26.039 15.9641 26.4696 16.0466 26.896 16.1683C27.0342 16.2026 27.1703 16.2453 27.3035 16.2964C27.5025 16.37 27.6754 16.504 27.7995 16.6808C27.9237 16.8577 27.9934 17.0691 27.9996 17.2875C28.0057 17.506 27.9479 17.7213 27.8339 17.9052C27.7198 18.0892 27.5548 18.2333 27.3602 18.3187C27.0638 18.4579 26.7425 18.5316 26.417 18.5349C26.0914 18.5383 25.7688 18.4713 25.4697 18.3383C25.2238 18.2286 25.0162 18.0436 24.875 17.8083C24.7338 17.5729 24.6657 17.2985 24.6799 17.0219H24.953C25.0035 17.274 25.1127 17.5095 25.271 17.708C25.4294 17.9066 25.6322 18.0623 25.8618 18.1616C26.0915 18.2608 26.3411 18.3007 26.589 18.2778C26.8369 18.2548 27.0757 18.1697 27.2846 18.0298C27.4119 17.9614 27.5175 17.8567 27.589 17.7282C27.6605 17.5996 27.6948 17.4525 27.6879 17.3043C27.6943 17.1584 27.6544 17.0144 27.5744 16.894C27.4944 16.7737 27.3787 16.6836 27.2447 16.6374C26.917 16.5115 26.5683 16.4441 26.2343 16.3333C25.8848 16.2326 25.5429 16.1055 25.2113 15.9532C24.6862 15.686 24.6442 14.6369 25.2429 14.3023C25.5586 14.1127 25.9165 14.0108 26.2817 14.0066C26.6469 14.0024 27.0068 14.0961 27.3266 14.2784C27.5095 14.3913 27.6567 14.5568 27.7503 14.7546C27.8439 14.9525 27.8799 15.1742 27.8539 15.3928ZM9.55577 18.4121C9.44579 18.4552 9.32436 18.4551 9.21444 18.4119C9.10452 18.3687 9.01372 18.2853 8.9592 18.1775C8.61681 17.6475 8.23871 17.1414 7.87531 16.6244L7.71776 16.4072C7.28505 17.0067 6.85233 17.5824 6.45742 18.1797C6.40597 18.2827 6.32007 18.3628 6.21573 18.4052C6.11139 18.4475 5.99572 18.4492 5.89026 18.41L7.51401 16.1574L6.0037 14.122C6.11241 14.0815 6.23135 14.0809 6.34041 14.1205C6.44948 14.16 6.542 14.2373 6.60236 14.3393C6.95315 14.8693 7.34176 15.3754 7.72827 15.9119C8.11687 15.3797 8.50128 14.8715 8.86048 14.3458C8.91221 14.2445 8.99815 14.1664 9.10195 14.1263C9.20575 14.0863 9.32017 14.0871 9.42343 14.1286L8.83737 14.9323C8.5748 15.2907 8.31643 15.6513 8.04335 16.001C8.02135 16.0214 8.00375 16.0463 7.9917 16.0742C7.97965 16.1021 7.97342 16.1323 7.97342 16.1628C7.97342 16.1934 7.97965 16.2236 7.9917 16.2514C8.00375 16.2793 8.02135 16.3043 8.04335 16.3247C8.54539 17.0132 9.04323 17.704 9.55577 18.4121ZM16.4499 14.1003V14.4044C16.2374 14.39 16.0244 14.4218 15.8246 14.4978C15.6247 14.5738 15.4425 14.6923 15.2897 14.8456C15.1369 14.9989 15.0169 15.1837 14.9374 15.3879C14.8579 15.5922 14.8207 15.8114 14.8282 16.0314V18.4208H14.5278V14.1177H14.8219V14.9996C15.1853 14.3566 15.7462 14.1177 16.4499 14.1003ZM2 16.1292C2.04411 15.9119 2.07142 15.6752 2.13234 15.4536C2.49574 14.1177 3.97664 13.5616 4.99542 14.3892C5.59198 14.8736 5.74112 15.56 5.71171 16.3333H2.3508C2.29618 17.7149 3.26034 18.549 4.49338 18.1232C4.6934 18.0492 4.87245 17.9249 5.01437 17.7615C5.1563 17.598 5.25663 17.4006 5.3063 17.187C5.37142 16.9698 5.47645 16.9329 5.67601 16.9959C5.64313 17.2603 5.55272 17.5136 5.41155 17.7367C5.27039 17.9598 5.08215 18.1469 4.86098 18.284C4.49557 18.4906 4.07632 18.5725 3.6632 18.5178C3.25008 18.4632 2.86424 18.2749 2.56085 17.9799C2.26071 17.6309 2.07923 17.1899 2.04411 16.7243C2.04411 16.6505 2.0168 16.5766 2.0021 16.5071C2.0007 16.3782 2 16.2522 2 16.1292ZM2.355 16.0358H5.39453C5.37562 15.0344 4.76436 14.3241 3.94933 14.3175C3.04188 14.3045 2.39281 14.9996 2.3529 16.0314L2.355 16.0358Z" fill="black"/>
</g>
<path d="M64.0489 22H57.75V11.4971H63.8072V13.4233H60.1158V15.7598H63.5508V17.6787H60.1158V20.0811H64.0489V22ZM73.1937 14.5L70.7181 18.1328L73.1791 22H70.513L69.4291 19.9785C69.3412 19.8174 69.2362 19.5903 69.1141 19.2974H69.0848C69.0116 19.5024 68.9115 19.7222 68.7845 19.9565L67.6932 22H65.0345L67.5687 18.2646L65.1883 14.5H67.869L68.9383 16.6021C69.0799 16.8804 69.18 17.1147 69.2386 17.3052H69.2679C69.3461 17.0757 69.451 16.8364 69.5829 16.5874L70.6742 14.5H73.1937ZM76.7648 21.1284H76.7355V25.4497H74.4211V14.5H76.7355V15.6279H76.7648C77.3361 14.7539 78.1393 14.3169 79.1745 14.3169C80.1462 14.3169 80.8957 14.6514 81.423 15.3203C81.9553 15.9844 82.2214 16.8901 82.2214 18.0376C82.2214 19.2876 81.9113 20.291 81.2912 21.0479C80.676 21.8047 79.8556 22.1831 78.8303 22.1831C77.9269 22.1831 77.2385 21.8315 76.7648 21.1284ZM76.6989 18.0522V18.6528C76.6989 19.1704 76.8356 19.5928 77.1091 19.9199C77.3825 20.2471 77.7414 20.4106 78.1857 20.4106C78.7131 20.4106 79.1208 20.208 79.4089 19.8027C79.7018 19.3926 79.8483 18.814 79.8483 18.0669C79.8483 16.7485 79.3356 16.0894 78.3102 16.0894C77.8366 16.0894 77.4484 16.27 77.1457 16.6313C76.8478 16.9878 76.6989 17.4614 76.6989 18.0522ZM88.7954 16.5874C88.5171 16.436 88.1924 16.3604 87.8213 16.3604C87.3184 16.3604 86.9253 16.5459 86.6421 16.917C86.3589 17.2832 86.2173 17.7837 86.2173 18.4185V22H83.9028V14.5H86.2173V15.8916H86.2466C86.6128 14.876 87.272 14.3682 88.2241 14.3682C88.4683 14.3682 88.6587 14.3975 88.7954 14.4561V16.5874ZM96.7391 18.9092H91.8465C91.9246 19.998 92.6107 20.5425 93.9046 20.5425C94.7298 20.5425 95.4549 20.3472 96.0799 19.9565V21.6265C95.3865 21.9976 94.4857 22.1831 93.3773 22.1831C92.1663 22.1831 91.2264 21.8486 90.5574 21.1797C89.8885 20.5059 89.554 19.5684 89.554 18.3672C89.554 17.1221 89.9154 16.1357 90.638 15.4082C91.3607 14.6807 92.2493 14.3169 93.304 14.3169C94.3978 14.3169 95.2425 14.6416 95.8382 15.291C96.4388 15.9404 96.7391 16.8218 96.7391 17.9351V18.9092ZM94.5931 17.4883C94.5931 16.4141 94.1585 15.877 93.2894 15.877C92.9183 15.877 92.596 16.0308 92.3226 16.3384C92.054 16.646 91.8904 17.0293 91.8319 17.4883H94.5931ZM97.8053 21.8022V19.9272C98.1862 20.1567 98.5646 20.3276 98.9406 20.4399C99.3214 20.5522 99.6803 20.6084 100.017 20.6084C100.427 20.6084 100.75 20.5522 100.984 20.4399C101.223 20.3276 101.343 20.1567 101.343 19.9272C101.343 19.7808 101.289 19.6587 101.182 19.561C101.074 19.4634 100.935 19.3779 100.764 19.3047C100.598 19.2314 100.415 19.1655 100.215 19.1069C100.015 19.0483 99.8219 18.9824 99.6364 18.9092C99.3385 18.7969 99.0748 18.6772 98.8454 18.5503C98.6207 18.4185 98.4303 18.2671 98.2741 18.0962C98.1227 17.9253 98.0055 17.7275 97.9225 17.5029C97.8444 17.2783 97.8053 17.0122 97.8053 16.7046C97.8053 16.2847 97.8956 15.9233 98.0763 15.6206C98.2619 15.3179 98.506 15.0713 98.8087 14.8809C99.1163 14.6855 99.4655 14.5439 99.8561 14.4561C100.252 14.3633 100.662 14.3169 101.087 14.3169C101.419 14.3169 101.756 14.3438 102.097 14.3975C102.439 14.4463 102.776 14.5195 103.108 14.6172V16.4043C102.815 16.2334 102.5 16.1064 102.163 16.0234C101.831 15.9355 101.504 15.8916 101.182 15.8916C101.03 15.8916 100.886 15.9062 100.75 15.9355C100.618 15.96 100.501 15.999 100.398 16.0527C100.296 16.1016 100.215 16.1675 100.156 16.2505C100.098 16.3286 100.068 16.4189 100.068 16.5215C100.068 16.6582 100.112 16.7754 100.2 16.873C100.288 16.9707 100.403 17.0562 100.545 17.1294C100.686 17.1978 100.842 17.2612 101.013 17.3198C101.189 17.3735 101.362 17.4297 101.533 17.4883C101.841 17.5957 102.119 17.7129 102.368 17.8398C102.617 17.9668 102.83 18.1157 103.006 18.2866C103.186 18.4575 103.323 18.6577 103.416 18.8872C103.513 19.1167 103.562 19.3901 103.562 19.7075C103.562 20.1519 103.464 20.5327 103.269 20.8501C103.079 21.1626 102.822 21.4189 102.5 21.6191C102.183 21.8145 101.814 21.9561 101.394 22.0439C100.979 22.1367 100.547 22.1831 100.098 22.1831C99.2726 22.1831 98.5084 22.0562 97.8053 21.8022ZM104.592 21.8022V19.9272C104.973 20.1567 105.351 20.3276 105.727 20.4399C106.108 20.5522 106.467 20.6084 106.804 20.6084C107.214 20.6084 107.536 20.5522 107.77 20.4399C108.01 20.3276 108.129 20.1567 108.129 19.9272C108.129 19.7808 108.076 19.6587 107.968 19.561C107.861 19.4634 107.722 19.3779 107.551 19.3047C107.385 19.2314 107.202 19.1655 107.001 19.1069C106.801 19.0483 106.608 18.9824 106.423 18.9092C106.125 18.7969 105.861 18.6772 105.632 18.5503C105.407 18.4185 105.217 18.2671 105.061 18.0962C104.909 17.9253 104.792 17.7275 104.709 17.5029C104.631 17.2783 104.592 17.0122 104.592 16.7046C104.592 16.2847 104.682 15.9233 104.863 15.6206C105.048 15.3179 105.292 15.0713 105.595 14.8809C105.903 14.6855 106.252 14.5439 106.643 14.4561C107.038 14.3633 107.448 14.3169 107.873 14.3169C108.205 14.3169 108.542 14.3438 108.884 14.3975C109.226 14.4463 109.562 14.5195 109.894 14.6172V16.4043C109.602 16.2334 109.287 16.1064 108.95 16.0234C108.618 15.9355 108.29 15.8916 107.968 15.8916C107.817 15.8916 107.673 15.9062 107.536 15.9355C107.404 15.96 107.287 15.999 107.185 16.0527C107.082 16.1016 107.001 16.1675 106.943 16.2505C106.884 16.3286 106.855 16.4189 106.855 16.5215C106.855 16.6582 106.899 16.7754 106.987 16.873C107.075 16.9707 107.189 17.0562 107.331 17.1294C107.473 17.1978 107.629 17.2612 107.8 17.3198C107.976 17.3735 108.149 17.4297 108.32 17.4883C108.627 17.5957 108.906 17.7129 109.155 17.8398C109.404 17.9668 109.616 18.1157 109.792 18.2866C109.973 18.4575 110.109 18.6577 110.202 18.8872C110.3 19.1167 110.349 19.3901 110.349 19.7075C110.349 20.1519 110.251 20.5327 110.056 20.8501C109.865 21.1626 109.609 21.4189 109.287 21.6191C108.969 21.8145 108.601 21.9561 108.181 22.0439C107.766 22.1367 107.333 22.1831 106.884 22.1831C106.059 22.1831 105.295 22.0562 104.592 21.8022Z" fill="white"/>
<path d="M131 0H5C2.23858 0 0 2.23858 0 5V27C0 29.7614 2.23857 32 5 32H131C133.761 32 136 29.7614 136 27V5C136 2.23858 133.761 0 131 0Z" fill="url(#paint0_linear_20_265)"/>
<defs>
<linearGradient id="paint0_linear_20_265" x1="0" y1="0" x2="0" y2="32" gradientUnits="userSpaceOnUse">
<stop stop-color="#BBBBBB" stop-opacity="0.1"/>
<stop offset="1" stop-opacity="0.1"/>
</linearGradient>
</defs>
</svg>
