<svg width="136" height="32" viewBox="0 0 136 32" fill="none" xmlns="http://www.w3.org/2000/svg">
<path d="M131 0H31V32H131C133.761 32 136 29.7614 136 27V5C136 2.23858 133.761 0 131 0Z" fill="#0F1418"/>
<path d="M5 0.5H30.5V31.5H5C2.51472 31.5 0.5 29.4853 0.5 27V5C0.5 2.51472 2.51472 0.5 5 0.5Z" fill="white" stroke="#1C2125"/>
<mask id="mask0_20_144" style="mask-type:alpha" maskUnits="userSpaceOnUse" x="0" y="0" width="31" height="32">
<path d="M5 0.5H30.5V31.5H5C2.51472 31.5 0.5 29.4853 0.5 27V5C0.5 2.51472 2.51472 0.5 5 0.5Z" fill="white" stroke="#1C2125"/>
</mask>
<g mask="url(#mask0_20_144)">
<path d="M4.29355 19.2191C4.09447 19.2713 3.81 19.435 3.67555 19.5766L3.54346 19.7098L3.50666 19.2409H3.01934L3.00826 20.94L3 22.6427H3.55455L3.57035 21.5354C3.58875 20.2858 3.61092 20.1673 3.84774 19.9257C4.01993 19.7509 4.29001 19.6535 4.52589 19.6803C4.72473 19.7022 4.86319 19.7914 4.96815 19.9697C5.03892 20.0892 5.04269 20.1746 5.05472 21.3682L5.06581 22.6427H5.62035L5.63144 21.4611C5.64253 20.3273 5.6463 20.2748 5.72532 20.1259C6.0138 19.5947 6.77497 19.5131 7.02547 19.9852C7.10095 20.1259 7.10473 20.204 7.11581 21.3865L7.13044 22.6427H7.65196L7.62908 19.873L7.52388 19.6766C7.29178 19.2374 6.65043 19.0664 6.11876 19.2971C6.03219 19.3348 5.86732 19.4571 5.75127 19.5644C5.5569 19.7474 5.53756 19.7584 5.49699 19.6914C5.39934 19.5242 5.238 19.3752 5.07666 19.2971C4.88513 19.2115 4.4806 19.1675 4.29355 19.2191Z" fill="#850000"/>
<path d="M8.9632 19.2226C8.50984 19.319 8.07135 19.6425 7.89892 20.0146C7.63262 20.5761 7.6437 21.383 7.92487 21.9287C8.21028 22.4865 8.94857 22.8062 9.61917 22.6686C10.5344 22.4757 10.9608 21.8396 10.8971 20.7655C10.8861 20.5797 10.8521 20.3456 10.8188 20.2381C10.6917 19.8328 10.3242 19.4533 9.91142 19.3007C9.668 19.208 9.21087 19.1713 8.9632 19.2226ZM9.73168 19.7584C10.1327 19.944 10.3277 20.3273 10.3242 20.9328C10.3204 21.5467 10.1407 21.9287 9.76565 22.119C9.51421 22.2484 9.09505 22.2522 8.86177 22.1336C8.70137 22.0482 8.50984 21.8544 8.4195 21.6834C8.25085 21.3599 8.24354 20.6055 8.40488 20.2602C8.58462 19.8697 8.88135 19.6766 9.29673 19.6728C9.47741 19.6693 9.58969 19.6912 9.73168 19.7584ZM12.2582 19.2336C11.9916 19.3117 11.8305 19.4009 11.6767 19.5571C11.5946 19.6389 11.5154 19.706 11.5008 19.706C11.4859 19.706 11.4713 19.5985 11.4713 19.4644V19.2191L11.0024 19.2409L10.9913 20.94L10.9837 22.6427H11.5458V21.5724C11.5496 20.442 11.568 20.2564 11.718 20.0332C11.8232 19.8695 12.1041 19.7133 12.352 19.6803C12.7077 19.6317 13.0717 19.8365 13.1538 20.1332C13.1804 20.227 13.1951 20.713 13.1951 21.4611V22.6427H13.7609L13.7388 19.9855L13.6411 19.7768C13.5286 19.5425 13.3602 19.3898 13.0939 19.2861C12.8615 19.1967 12.4756 19.1711 12.2582 19.2336ZM14.9936 19.2191C14.428 19.3421 14.0272 19.7695 13.8697 20.4126C13.7987 20.6985 13.8098 21.2414 13.8881 21.5088C14.1176 22.2974 14.6271 22.6879 15.3651 22.6356C15.6498 22.6133 15.8975 22.5168 16.0883 22.3496C16.2157 22.2376 16.2275 22.2338 16.2497 22.3047C16.2874 22.427 16.2275 22.9064 16.1555 23.0701C16.0138 23.39 15.7326 23.5349 15.2599 23.5349C14.837 23.5314 14.5513 23.375 14.4841 23.104C14.4657 23.0334 14.428 23.0148 14.2898 22.9958C14.2028 22.9863 14.1164 22.9727 14.0308 22.9551C13.9525 22.9405 13.9442 22.9516 13.9442 23.0967C13.948 23.4533 14.2178 23.7657 14.6528 23.9146C14.8445 23.9817 14.9828 24 15.2748 24C15.9501 24 16.4145 23.7619 16.6393 23.3044C16.808 22.9661 16.8346 22.5721 16.8226 20.7655L16.8115 19.2412H16.3242L16.3131 19.435C16.3058 19.5425 16.2909 19.6317 16.2801 19.6317C16.2681 19.6317 16.2008 19.5799 16.1261 19.5166C15.8414 19.2677 15.3538 19.141 14.9936 19.2191ZM15.7326 19.762C15.8378 19.818 15.9723 19.9182 16.0284 19.9925C16.4485 20.5385 16.3693 21.665 15.8822 22.0141C15.4064 22.3569 14.7429 22.1703 14.507 21.6319C14.3867 21.3564 14.357 20.7323 14.4511 20.3943C14.5219 20.1221 14.7238 19.8622 14.9533 19.7436C15.155 19.6354 15.4923 19.6425 15.7326 19.762ZM18.086 19.2374C17.7753 19.3266 17.6814 19.3715 17.475 19.5277C17.074 19.8255 16.8872 20.2821 16.8908 20.9509C16.8908 21.438 16.9655 21.7321 17.1682 22.0447C17.4382 22.4571 17.8989 22.6879 18.4608 22.6916C19.1094 22.6951 19.6227 22.4084 19.8817 21.8993L20.0126 21.6394L20.1287 21.8772C20.5525 22.7659 21.8793 22.981 22.633 22.2898C22.7528 22.1816 22.8837 22.0299 22.9214 21.9591C22.9629 21.8848 23.0033 21.825 23.0144 21.825C23.0264 21.825 23.067 21.9031 23.1047 22.0033C23.2927 22.4498 23.7571 22.6951 24.4204 22.6914C24.8066 22.6914 25.0913 22.6208 25.3503 22.4571C25.504 22.3606 25.751 22.0849 25.751 22.0068C25.751 21.9923 25.7694 21.9325 25.7925 21.8775L25.8293 21.7725L25.9378 21.9591C26.4072 22.777 27.7154 22.9588 28.4268 22.3082C28.6108 22.1374 28.8615 21.6954 28.8018 21.6394C28.7832 21.6211 28.6561 21.5907 28.5169 21.5759L28.2702 21.543L28.2093 21.6688C28.0407 22.0179 27.8012 22.1934 27.438 22.2228C26.8641 22.2752 26.4329 21.9214 26.3204 21.316C26.302 21.2084 26.2945 21.1111 26.3056 21.1C26.3166 21.0889 26.8981 21.0817 27.5946 21.0817H28.8615V20.8812C28.8615 20.6239 28.8127 20.3712 28.7087 20.0965C28.5879 19.7766 28.2213 19.4202 27.8878 19.2971C27.5274 19.1631 27.029 19.1713 26.6733 19.3155C26.0772 19.5571 25.7168 20.16 25.7133 20.9069V21.1633L25.564 21.033C25.4026 20.8996 25.0804 20.7693 24.5707 20.6359C24.0003 20.487 23.8095 20.4124 23.7083 20.2969C23.5996 20.1673 23.5923 20.0819 23.6706 19.933C23.7571 19.762 23.9966 19.6693 24.3532 19.6693C24.7613 19.6693 24.9448 19.762 25.0766 20.0294C25.1512 20.1819 25.1851 20.2188 25.2451 20.2078C25.2866 20.2005 25.3991 20.1819 25.4993 20.1711C25.7095 20.1452 25.7253 20.0892 25.5861 19.7951C25.4026 19.4047 24.9787 19.2042 24.3459 19.208C24.0492 19.2115 23.9258 19.2263 23.7498 19.2971C23.3672 19.4423 23.15 19.6987 23.0936 20.0744L23.067 20.2454L22.9509 20.0219C22.3667 18.9064 20.6271 18.9295 20.1065 20.0588L20.0126 20.2637L19.8817 20.0038C19.7166 19.6766 19.4578 19.4458 19.1059 19.3117C18.7945 19.1932 18.3596 19.1628 18.086 19.2374ZM18.9217 19.7657C19.3076 19.9551 19.4993 20.3421 19.4993 20.9325C19.4956 21.7504 19.117 22.2338 18.4794 22.2338C18.0895 22.2338 17.7635 22.0179 17.5876 21.6505C17.4944 21.45 17.4861 21.4013 17.4861 20.9328C17.4861 20.3861 17.5276 20.2306 17.7449 19.977C18.0039 19.6728 18.5355 19.5764 18.9217 19.7657ZM21.905 19.7243C22.0857 19.7987 22.3289 20.0221 22.4155 20.1894C22.5806 20.5091 22.6063 21.1781 22.4719 21.5686C22.3964 21.7881 22.1907 22.0297 21.9916 22.1263C21.6543 22.2974 21.167 22.2411 20.8898 21.9993C20.4327 21.6018 20.3766 20.487 20.7919 20.0073C21.0509 19.7022 21.5491 19.5801 21.905 19.7243ZM27.7071 19.7399C28.0039 19.866 28.2249 20.1673 28.236 20.4604L28.2433 20.6166H26.3324L26.3435 20.5053C26.3692 20.1929 26.5865 19.8998 26.8945 19.7474C27.0962 19.6462 27.4823 19.6422 27.7071 19.7399ZM23.3748 20.7914C23.5248 20.929 23.735 21.0108 24.402 21.1889C24.72 21.2745 25.024 21.3757 25.0766 21.4124C25.3991 21.6429 25.2304 22.0887 24.7761 22.1971C24.5063 22.2595 24.1393 22.2266 23.922 22.1153C23.7718 22.041 23.7267 21.9885 23.6335 21.7918L23.5213 21.5613L23.079 21.6053L23.1049 21.4307C23.1158 21.3343 23.1278 21.0779 23.1278 20.8619V20.4677L23.1986 20.5799C23.2356 20.6396 23.3149 20.7363 23.3748 20.7914ZM17.2135 8.01944C16.8714 8.03332 16.2957 8.12435 16.2957 8.16293C16.2957 8.1794 16.7021 8.3817 16.7325 8.3817C16.762 8.3817 17.2337 8.61694 17.3378 8.6821C17.475 8.76914 17.5727 8.84841 17.5442 8.84841C17.5258 8.84841 17.041 8.66187 16.8578 8.58259C16.7084 8.51931 16.0874 8.33559 15.7843 8.26385C15.6213 8.22621 15.5522 8.21162 15.2738 8.16105C14.8629 8.08577 14.381 8.08201 14.1699 8.15093C13.8697 8.24832 13.8024 8.36782 13.8024 8.8096C13.8024 9.05236 13.8142 9.1561 13.8678 9.37487C13.89 9.47038 13.9553 9.67903 13.9867 9.74984C13.9949 9.77171 14.0235 9.84064 14.0475 9.90227C14.0723 9.96296 14.1461 10.1192 14.2115 10.2469C14.5771 10.97 15.1245 11.5736 15.8968 12.1048C16.1397 12.2711 16.8026 12.5873 17.0677 12.6628C17.1351 12.6811 17.158 12.7197 17.1028 12.7197C17.041 12.7197 16.4818 12.5651 16.3667 12.5165C16.323 12.4976 16.2787 12.4801 16.2339 12.4642C15.8359 12.3033 15.3271 11.9735 14.9061 11.5986C14.4448 11.1893 14.0761 10.6868 13.8244 10.1246C13.6633 9.76183 13.5536 9.33817 13.5269 8.96956C13.5104 8.75926 13.4939 8.70774 13.4385 8.71056C13.4201 8.71056 13.2467 8.70397 13.054 8.69409C12.5337 8.67198 11.8204 8.72891 11.1156 8.85029C9.76659 9.07894 8.31171 9.60822 6.81365 10.4151C6.56444 10.5492 6.31828 10.6889 6.07536 10.834C6.04705 10.8505 5.95742 10.9046 5.87557 10.9564C5.79372 11.0067 5.69772 11.0639 5.66281 11.0857C5.58544 11.13 4.72945 11.7098 4.62731 11.7868C4.58839 11.8154 4.48154 11.8945 4.39214 11.9587C3.98573 12.2593 3.10048 12.9787 3.04977 13.0514C3.02477 13.0881 3.06345 13.1064 3.11699 13.0881C3.14365 13.078 3.21276 13.0643 3.26796 13.0559C3.32527 13.0476 3.4727 13.009 3.59512 12.9688C3.71966 12.93 3.85222 12.8895 3.89185 12.8794C4.19401 12.8089 4.31643 12.7839 4.49451 12.7583C4.57377 12.7472 4.69265 12.7298 4.75988 12.7197C5.59016 12.5974 5.9862 12.567 6.35558 12.5955C7.15921 12.6609 7.92746 12.7959 8.36714 12.9521C8.69595 13.0697 9.36584 13.4308 9.66069 13.6477C9.83028 13.7754 10.3778 14.3186 10.498 14.4828C10.5924 14.6126 10.6962 14.7256 10.7212 14.7256C10.7285 14.7256 10.7396 14.312 10.7415 13.8077L10.7471 12.8914L11.8223 12.8851C12.6681 12.8813 12.903 12.8879 12.9179 12.9062C12.9382 12.9321 12.987 13.0192 13.1481 13.317C13.3021 13.6028 13.3776 13.7404 13.4246 13.8241C13.4486 13.8684 13.5057 13.974 13.5536 14.0565C13.5977 14.1403 13.6817 14.2937 13.7388 14.3993C13.7958 14.5051 13.843 14.5941 13.843 14.5978C13.843 14.6162 13.9267 14.7256 13.9416 14.7256C13.9499 14.7256 13.9699 14.6952 13.9841 14.6613C14.0006 14.6244 14.0437 14.5437 14.0779 14.483C14.1147 14.4214 14.1801 14.3019 14.2254 14.2193C14.2704 14.1356 14.3322 14.0208 14.3645 13.9657C14.4546 13.8058 14.5485 13.6312 14.6261 13.4896C14.6648 13.4162 14.7266 13.3031 14.7625 13.236C14.7993 13.169 14.8528 13.0744 14.8813 13.0229C14.9021 12.9825 14.9255 12.9436 14.9514 12.9062C14.967 12.8879 15.2085 12.8813 16.0791 12.8851L17.1849 12.8914L17.1903 14.6816C17.1951 16.0921 17.2005 16.4687 17.2217 16.4687C17.2335 16.4668 17.3156 16.42 17.3996 16.3612C17.5175 16.2786 17.5689 16.228 17.6234 16.1342C17.7487 15.922 18.1015 15.5875 18.3393 15.4579C18.6273 15.2989 18.9371 15.1829 19.2587 15.1135C19.5859 15.0445 19.6817 15.0344 20.4235 15.0076C21.7779 14.9608 21.9789 14.9526 21.989 14.9424C21.9944 14.9368 21.976 14.8836 21.9503 14.823C21.9218 14.7641 21.872 14.6548 21.8378 14.5823C21.7088 14.3038 21.7088 14.2111 21.8435 14.0749C21.9355 13.9803 22.1723 13.8968 22.5794 13.8159C22.6469 13.8011 22.7306 13.7837 22.7658 13.7707C22.7997 13.7609 22.8431 13.7533 22.8615 13.7533C22.9122 13.7533 23.3194 13.6531 23.4052 13.6211C23.4642 13.5971 23.7829 13.5282 24.1633 13.4548C24.3284 13.4226 24.7577 13.3372 25.1134 13.2664C25.3382 13.2222 25.5732 13.1754 25.634 13.1634C25.6958 13.1507 25.7833 13.1332 25.8284 13.1248C25.8734 13.1147 25.9324 13.1029 25.9612 13.0982C25.9895 13.0918 26.1334 13.0643 26.278 13.034C26.4254 13.0027 26.5719 12.9752 26.607 12.9705C26.7091 12.9603 27.4795 12.7757 27.6574 12.7197C27.9392 12.628 28.023 12.592 28.2011 12.4725C28.3935 12.3419 28.4461 12.2711 28.6358 11.8945C28.8469 11.4746 28.8773 11.4038 28.9363 11.2274C29.0283 10.9463 29.0229 10.8387 28.9056 10.7211C28.8247 10.6402 28.6488 10.5565 28.5197 10.5381C28.424 10.5264 28.4119 10.5299 28.3641 10.5814C28.3355 10.6117 28.3115 10.6475 28.3115 10.6604C28.3115 10.6778 28.2784 10.7679 28.1871 10.9867C28.1789 11.0086 28.1605 11.0639 28.1456 11.1079C28.1314 11.156 28.1145 11.2033 28.0949 11.2495C28.0683 11.3064 28.0666 11.2963 28.0765 11.1382C28.0867 10.982 28.1135 10.8505 28.1725 10.6522C28.1827 10.6136 28.1973 10.5482 28.2027 10.5078L28.2129 10.4353L28.001 10.3499C27.8265 10.2788 27.6528 10.2059 27.4797 10.1312C27.4117 10.1043 27.3435 10.0779 27.275 10.0521C27.2041 10.0265 27.1341 9.9986 27.0651 9.96837C26.994 9.9375 26.9225 9.90785 26.8504 9.87945C26.7129 9.82699 26.2348 9.66539 25.8284 9.53742C25.7178 9.5026 25.0747 9.31065 25.0111 9.29207C24.8804 9.25725 24.7846 9.23161 24.7257 9.21303C24.6924 9.20479 24.6131 9.18292 24.5513 9.16621C24.1921 9.06694 24.098 9.04225 23.969 9.00625C23.898 8.98517 23.8264 8.96619 23.7543 8.94933C23.7156 8.93921 23.6097 8.91451 23.5194 8.8924C23.3618 8.85382 22.7021 8.70233 22.3447 8.62141C22.2594 8.60131 22.1741 8.58171 22.0886 8.5626C22.0276 8.54912 21.9665 8.53688 21.905 8.5259C21.8197 8.51031 21.7346 8.49345 21.6498 8.47533C21.5171 8.44928 21.3842 8.42474 21.251 8.4017C21.1319 8.38039 21.0127 8.35961 20.8934 8.33936C20.3296 8.23821 20.2907 8.23185 19.279 8.12059C18.6554 8.05002 17.8178 7.99121 17.6133 8.00109C17.5809 8.00109 17.3996 8.00932 17.2135 8.01944ZM14.8509 9.01825C15.3899 9.19303 15.9152 9.42992 16.2754 9.66045C16.561 9.84534 16.9167 10.1394 17.0125 10.2709L17.054 10.3259L16.9757 10.2956C16.9332 10.2772 16.8429 10.2387 16.7757 10.2064C16.4164 10.0401 16.3777 10.0253 16.3777 10.0622C16.3777 10.0723 16.4615 10.2064 16.561 10.3563C16.6634 10.5078 16.7452 10.6421 16.7452 10.6539C16.7452 10.664 16.7066 10.6475 16.6596 10.6153C16.4754 10.4894 16.044 10.3095 16.0192 10.3462C16.0138 10.3563 16.1466 10.5245 16.3159 10.7211C16.4834 10.9178 16.6226 11.0857 16.6226 11.0977C16.6226 11.1283 16.5896 11.1243 16.4348 11.0674C16.2754 11.0105 16.2339 11.0051 16.2339 11.0427C16.2339 11.0693 16.5794 11.5334 16.7167 11.6943C16.7554 11.7383 16.7858 11.7806 16.7858 11.7908C16.7858 11.8394 16.3077 11.5296 15.9685 11.2622C15.484 10.8773 15.0158 10.3598 14.7688 9.93262C14.5672 9.58353 14.4971 9.3951 14.4971 9.18833C14.4971 9.06695 14.5035 9.04225 14.5488 9.00014C14.5747 8.97144 14.6077 8.94933 14.6195 8.94933C14.6325 8.94933 14.7339 8.97991 14.8509 9.01825ZM21.3026 9.73996C21.4989 9.77477 21.7659 9.82064 21.8949 9.8437C22.0239 9.86581 22.1805 9.89239 22.2423 9.90251C22.3032 9.91427 22.3917 9.93097 22.4367 9.94108C22.4811 9.9512 22.5695 9.96861 22.6301 9.98343C22.833 10.0274 22.8818 10.0375 23.2127 10.1149C23.5682 10.1984 23.6456 10.214 23.7543 10.237C23.8463 10.2544 23.9385 10.2895 23.9385 10.3059C23.9385 10.3113 23.8704 10.3502 23.7895 10.3923C23.6218 10.476 23.5866 10.4817 22.8964 10.508C22.4256 10.5282 22.1751 10.5228 21.9458 10.4861C21.484 10.4153 21.2453 10.2857 21.0592 10.0055C20.9938 9.9098 20.9507 9.88228 20.8014 9.8437C20.7459 9.82723 20.6622 9.80512 20.6179 9.79053C20.5728 9.77665 20.4952 9.75454 20.4457 9.73996C20.2992 9.70138 20.3829 9.67927 20.6787 9.67927C20.8832 9.67927 21.0262 9.69315 21.3026 9.73996ZM23.7604 12.5717C23.7435 12.5754 23.726 12.5754 23.709 12.5717C23.6951 12.5651 23.7053 12.5616 23.7338 12.5616C23.7623 12.5616 23.7725 12.5651 23.7604 12.5717ZM23.672 12.5955C23.672 12.6056 23.6482 12.6204 23.6168 12.6261C23.5541 12.6425 23.3045 12.7131 23.2224 12.7399C23.1941 12.75 23.1026 12.7785 23.0188 12.8023C22.8077 12.863 22.2973 13.0293 22.1603 13.0817C21.9032 13.1791 21.2977 13.4997 21.212 13.5842C21.0858 13.7084 21.0462 13.8425 21.0646 14.098C21.071 14.2045 21.0858 14.3405 21.0976 14.3993C21.1217 14.527 21.1078 14.5621 21.059 14.4986C21.0094 14.4362 20.9052 14.2092 20.8747 14.098C20.8582 14.0464 20.8398 13.9803 20.8297 13.9474C20.7926 13.8324 20.8075 13.6964 20.8646 13.6129C20.942 13.4953 21.2203 13.3069 21.5475 13.1507C21.7022 13.0761 22.1537 12.9218 22.5693 12.8004C22.653 12.7757 22.7443 12.7472 22.7728 12.7399C23.0677 12.6407 23.672 12.5452 23.672 12.5955ZM17.2085 12.7317C17.2031 12.7371 17.1844 12.7399 17.1698 12.7333C17.1533 12.727 17.1597 12.7216 17.1816 12.7216C17.2047 12.7197 17.217 12.7251 17.2085 12.7315V12.7317Z" fill="#850000"/>
<path d="M12.9233 16.6517V18.0702H13.9414C14.7054 18.0702 14.9651 18.0638 14.9835 18.0455C15.0141 18.0151 15.0205 15.2327 14.9901 15.2327C14.9799 15.2327 14.9651 15.2485 14.9587 15.2668C14.9514 15.2852 14.7283 15.6315 14.4622 16.0368C14.0419 16.6773 13.9249 16.8335 13.9249 16.7545C13.9249 16.7406 13.2283 15.6564 13.0505 15.3946C13.0262 15.3606 13.0049 15.3246 12.9868 15.2871C12.9703 15.2565 12.95 15.233 12.9398 15.233C12.9316 15.233 12.9233 15.8716 12.9233 16.6517Z" fill="#850000"/>
</g>
<path d="M58.5609 22H56.2245V15.7158C56.2245 15.0371 56.2538 14.2876 56.3124 13.4673H56.2538C56.1317 14.1118 56.0219 14.5757 55.9242 14.8589L53.4633 22H51.5297L49.0248 14.9321C48.9564 14.7417 48.8466 14.2534 48.6952 13.4673H48.6293C48.6928 14.5024 48.7245 15.4106 48.7245 16.1919V22H46.5931V11.4971H50.0575L52.2035 17.7227C52.3744 18.2207 52.4989 18.7212 52.577 19.2241H52.621C52.7528 18.6431 52.892 18.1377 53.0385 17.708L55.1845 11.4971H58.5609V22ZM64.7395 22.1831C63.4895 22.1831 62.5056 21.834 61.7878 21.1357C61.0749 20.4326 60.7185 19.4805 60.7185 18.2793C60.7185 17.0391 61.0896 16.0698 61.8317 15.3716C62.5739 14.6685 63.5773 14.3169 64.842 14.3169C66.0871 14.3169 67.0637 14.6685 67.7717 15.3716C68.4797 16.0698 68.8337 16.9951 68.8337 18.1475C68.8337 19.3926 68.4675 20.3765 67.7351 21.0991C67.0075 21.8218 66.009 22.1831 64.7395 22.1831ZM64.798 16.0894C64.2512 16.0894 63.8264 16.2773 63.5236 16.6533C63.2209 17.0293 63.0695 17.5615 63.0695 18.25C63.0695 19.6904 63.6506 20.4106 64.8127 20.4106C65.9211 20.4106 66.4753 19.6709 66.4753 18.1914C66.4753 16.79 65.9162 16.0894 64.798 16.0894ZM77.7588 22H75.4517V17.8325C75.4517 16.6704 75.0366 16.0894 74.2066 16.0894C73.8062 16.0894 73.4766 16.2432 73.2178 16.5508C72.959 16.8584 72.8296 17.249 72.8296 17.7227V22H70.5152V14.5H72.8296V15.6865H72.8589C73.4107 14.7734 74.2139 14.3169 75.2686 14.3169C76.9287 14.3169 77.7588 15.3472 77.7588 17.4077V22ZM87.1307 21.1431C87.1307 22.5347 86.7279 23.6113 85.9222 24.373C85.1165 25.1396 83.9496 25.5229 82.4212 25.5229C81.4105 25.5229 80.6097 25.3789 80.0189 25.0908V23.1426C80.7904 23.5918 81.5692 23.8164 82.3553 23.8164C83.1366 23.8164 83.742 23.6089 84.1717 23.1938C84.6014 22.7837 84.8162 22.2246 84.8162 21.5166V20.9233H84.787C84.2596 21.7632 83.4808 22.1831 82.4505 22.1831C81.4935 22.1831 80.7342 21.8462 80.1727 21.1724C79.6112 20.4985 79.3304 19.5952 79.3304 18.4624C79.3304 17.1929 79.6429 16.1846 80.2679 15.4375C80.8929 14.6904 81.7157 14.3169 82.7362 14.3169C83.6493 14.3169 84.3329 14.6685 84.787 15.3716H84.8162V14.5H87.1307V21.1431ZM84.8455 18.3965V17.8032C84.8455 17.3296 84.7039 16.9268 84.4207 16.5947C84.1424 16.2578 83.7787 16.0894 83.3294 16.0894C82.8167 16.0894 82.4139 16.2896 82.1209 16.6899C81.828 17.0903 81.6815 17.6543 81.6815 18.3818C81.6815 19.0068 81.8206 19.5024 82.099 19.8687C82.3773 20.23 82.7581 20.4106 83.2415 20.4106C83.7201 20.4106 84.1058 20.2275 84.3988 19.8613C84.6966 19.4902 84.8455 19.002 84.8455 18.3965ZM92.8185 22.1831C91.5685 22.1831 90.5846 21.834 89.8669 21.1357C89.154 20.4326 88.7975 19.4805 88.7975 18.2793C88.7975 17.0391 89.1686 16.0698 89.9108 15.3716C90.653 14.6685 91.6564 14.3169 92.9211 14.3169C94.1662 14.3169 95.1427 14.6685 95.8507 15.3716C96.5588 16.0698 96.9128 16.9951 96.9128 18.1475C96.9128 19.3926 96.5465 20.3765 95.8141 21.0991C95.0866 21.8218 94.088 22.1831 92.8185 22.1831ZM92.8771 16.0894C92.3302 16.0894 91.9054 16.2773 91.6027 16.6533C91.3 17.0293 91.1486 17.5615 91.1486 18.25C91.1486 19.6904 91.7296 20.4106 92.8918 20.4106C94.0002 20.4106 94.5544 19.6709 94.5544 18.1914C94.5544 16.79 93.9953 16.0894 92.8771 16.0894ZM102.168 22.1831C100.918 22.1831 99.9346 21.834 99.2168 21.1357C98.5039 20.4326 98.1474 19.4805 98.1474 18.2793C98.1474 17.0391 98.5185 16.0698 99.2607 15.3716C100.003 14.6685 101.006 14.3169 102.271 14.3169C103.516 14.3169 104.493 14.6685 105.201 15.3716C105.909 16.0698 106.263 16.9951 106.263 18.1475C106.263 19.3926 105.896 20.3765 105.164 21.0991C104.437 21.8218 103.438 22.1831 102.168 22.1831ZM102.227 16.0894C101.68 16.0894 101.255 16.2773 100.953 16.6533C100.65 17.0293 100.499 17.5615 100.499 18.25C100.499 19.6904 101.08 20.4106 102.242 20.4106C103.35 20.4106 103.904 19.6709 103.904 18.1914C103.904 16.79 103.345 16.0894 102.227 16.0894ZM107.453 21.8022V19.9272C107.834 20.1567 108.213 20.3276 108.589 20.4399C108.97 20.5522 109.328 20.6084 109.665 20.6084C110.075 20.6084 110.398 20.5522 110.632 20.4399C110.871 20.3276 110.991 20.1567 110.991 19.9272C110.991 19.7808 110.937 19.6587 110.83 19.561C110.722 19.4634 110.583 19.3779 110.412 19.3047C110.246 19.2314 110.063 19.1655 109.863 19.1069C109.663 19.0483 109.47 18.9824 109.284 18.9092C108.987 18.7969 108.723 18.6772 108.493 18.5503C108.269 18.4185 108.078 18.2671 107.922 18.0962C107.771 17.9253 107.654 17.7275 107.571 17.5029C107.492 17.2783 107.453 17.0122 107.453 16.7046C107.453 16.2847 107.544 15.9233 107.724 15.6206C107.91 15.3179 108.154 15.0713 108.457 14.8809C108.764 14.6855 109.114 14.5439 109.504 14.4561C109.9 14.3633 110.31 14.3169 110.735 14.3169C111.067 14.3169 111.404 14.3438 111.745 14.3975C112.087 14.4463 112.424 14.5195 112.756 14.6172V16.4043C112.463 16.2334 112.148 16.1064 111.811 16.0234C111.479 15.9355 111.152 15.8916 110.83 15.8916C110.679 15.8916 110.534 15.9062 110.398 15.9355C110.266 15.96 110.149 15.999 110.046 16.0527C109.944 16.1016 109.863 16.1675 109.804 16.2505C109.746 16.3286 109.717 16.4189 109.717 16.5215C109.717 16.6582 109.761 16.7754 109.848 16.873C109.936 16.9707 110.051 17.0562 110.193 17.1294C110.334 17.1978 110.491 17.2612 110.661 17.3198C110.837 17.3735 111.011 17.4297 111.181 17.4883C111.489 17.5957 111.767 17.7129 112.016 17.8398C112.265 17.9668 112.478 18.1157 112.654 18.2866C112.834 18.4575 112.971 18.6577 113.064 18.8872C113.161 19.1167 113.21 19.3901 113.21 19.7075C113.21 20.1519 113.113 20.5327 112.917 20.8501C112.727 21.1626 112.471 21.4189 112.148 21.6191C111.831 21.8145 111.462 21.9561 111.042 22.0439C110.627 22.1367 110.195 22.1831 109.746 22.1831C108.921 22.1831 108.157 22.0562 107.453 21.8022ZM121.469 18.9092H116.576C116.654 19.998 117.34 20.5425 118.634 20.5425C119.46 20.5425 120.185 20.3472 120.81 19.9565V21.6265C120.116 21.9976 119.215 22.1831 118.107 22.1831C116.896 22.1831 115.956 21.8486 115.287 21.1797C114.618 20.5059 114.284 19.5684 114.284 18.3672C114.284 17.1221 114.645 16.1357 115.368 15.4082C116.09 14.6807 116.979 14.3169 118.034 14.3169C119.128 14.3169 119.972 14.6416 120.568 15.291C121.169 15.9404 121.469 16.8218 121.469 17.9351V18.9092ZM119.323 17.4883C119.323 16.4141 118.888 15.877 118.019 15.877C117.648 15.877 117.326 16.0308 117.052 16.3384C116.784 16.646 116.62 17.0293 116.562 17.4883H119.323Z" fill="white"/>
<path d="M131 0H5C2.23858 0 0 2.23858 0 5V27C0 29.7614 2.23857 32 5 32H131C133.761 32 136 29.7614 136 27V5C136 2.23858 133.761 0 131 0Z" fill="url(#paint0_linear_20_144)"/>
<defs>
<linearGradient id="paint0_linear_20_144" x1="0" y1="0" x2="0" y2="32" gradientUnits="userSpaceOnUse">
<stop stop-color="#BBBBBB" stop-opacity="0.1"/>
<stop offset="1" stop-opacity="0.1"/>
</linearGradient>
</defs>
</svg>
