<svg width="136" height="32" viewBox="0 0 136 32" fill="none" xmlns="http://www.w3.org/2000/svg">
<path d="M131 0H31V32H131C133.761 32 136 29.7614 136 27V5C136 2.23858 133.761 0 131 0Z" fill="#0F1418"/>
<path d="M5 0.5H30.5V31.5H5C2.51472 31.5 0.5 29.4853 0.5 27V5C0.5 2.51472 2.51472 0.5 5 0.5Z" fill="white" stroke="#1C2125"/>
<path fill-rule="evenodd" clip-rule="evenodd" d="M20.7442 24.5167C20.7823 24.4446 20.8188 24.3809 20.85 24.315C20.8696 24.2729 20.8998 24.2644 20.9424 24.2655C21.1979 24.2726 21.4533 24.2804 21.709 24.2828C21.9261 24.2851 22.1437 24.2811 22.3611 24.2786C22.6059 24.2758 22.8508 24.2631 23.0955 24.27C23.4213 24.2793 23.7387 24.3421 24.0334 24.4847C24.3854 24.6553 24.6517 24.9151 24.8332 25.2573C24.9473 25.4744 25.0185 25.7107 25.0431 25.9539C25.0819 26.3106 25.0564 26.659 24.9414 27.0002C24.7989 27.423 24.5283 27.7467 24.1525 27.9891C23.8632 28.1757 23.5459 28.2859 23.2059 28.3489C22.8461 28.4157 22.4851 28.3942 22.1241 28.3953C21.7282 28.3968 21.3325 28.3884 20.9365 28.384C20.8673 28.3833 20.8574 28.3704 20.8757 28.3054L20.8926 28.2455C20.9311 28.1262 20.9519 28.1209 21.075 28.1009C21.1622 28.0874 21.2457 28.0562 21.3201 28.0093C21.3616 27.9822 21.3787 27.9117 21.3949 27.8573C21.4089 27.8099 21.4096 27.7578 21.41 27.7076C21.4157 26.9479 21.4215 26.1883 21.4247 25.429C21.4256 25.237 21.4207 25.0449 21.41 24.8532C21.4024 24.719 21.3295 24.6271 21.1672 24.5954C21.0409 24.5708 20.9138 24.5517 20.7868 24.5297L20.7442 24.5167ZM24.3689 26.3563C24.3518 26.205 24.3434 26.0524 24.3159 25.9033C24.2501 25.5455 24.0909 25.2338 23.8113 24.9896C23.3593 24.595 22.815 24.5342 22.2445 24.5812C22.1146 24.5919 22.0867 24.6356 22.0847 24.7669C22.0815 24.9532 22.0783 25.1395 22.0781 25.3259C22.0772 25.9168 22.0772 26.5078 22.0781 27.0987C22.0783 27.2668 22.0801 27.435 22.0851 27.6027C22.0905 27.7744 22.1539 27.9197 22.3248 27.9862C22.5942 28.0912 22.8776 28.1036 23.1604 28.0608C23.612 27.9927 23.9279 27.7338 24.1398 27.3458C24.3076 27.0379 24.3549 26.7019 24.3689 26.3563ZM25.4668 28.3684C25.4613 28.2764 25.4997 28.2003 25.547 28.1304C25.5599 28.1116 25.6041 28.1124 25.6345 28.1065L25.8929 28.0561C25.9842 28.037 26.0322 27.9767 26.0451 27.8886C26.0537 27.8305 26.0618 27.7717 26.0625 27.7129C26.0686 27.2478 26.073 26.7826 26.0758 26.3174C26.078 25.8516 26.0762 25.3858 26.0762 24.9199L26.0742 24.831C26.0649 24.6812 25.9914 24.6036 25.8404 24.5816L25.5128 24.5326C25.4724 24.5273 25.4577 24.5082 25.4724 24.473C25.4976 24.4128 25.5218 24.3505 25.5574 24.2964C25.5707 24.2764 25.6156 24.2687 25.6458 24.2693C25.8023 24.2715 25.9587 24.2831 26.1152 24.2828L27.4773 24.2749C27.7398 24.2746 27.9932 24.3197 28.2286 24.4432C28.4877 24.579 28.6326 24.7891 28.6741 25.0752C28.7174 25.3758 28.6247 25.6291 28.4015 25.8303C28.3098 25.9133 28.1909 25.9674 28.0845 26.0348L28.0498 26.0561C28.1485 26.0918 28.2426 26.1227 28.3341 26.1595C28.602 26.2675 28.815 26.4363 28.9278 26.7059C29.0168 26.9186 29.0168 27.1404 28.9641 27.3609C28.882 27.7061 28.6509 27.9357 28.3503 28.1093C28.0683 28.2724 27.763 28.3673 27.4379 28.3833C27.138 28.3982 26.8367 28.3926 26.5362 28.3959L26.3621 28.3968C26.0724 28.3903 25.7828 28.3832 25.4931 28.3755L25.4668 28.3684ZM26.7152 27.0177H26.7181C26.7181 27.1637 26.7161 27.3097 26.7188 27.4556C26.7206 27.5501 26.7172 27.6473 26.738 27.7382C26.7691 27.8742 26.8322 27.9969 26.9874 28.0359C27.1947 28.0895 27.4114 28.0989 27.6227 28.0634C27.8881 28.018 28.0998 27.8871 28.216 27.6384C28.3021 27.4536 28.3149 27.2578 28.2854 27.0577C28.2462 26.7941 28.1039 26.6029 27.8674 26.4776C27.7123 26.3953 27.5468 26.3449 27.3704 26.3383C27.1729 26.331 26.9752 26.3305 26.7777 26.3245C26.7222 26.323 26.7145 26.3507 26.7148 26.3955C26.7159 26.6027 26.7152 26.8101 26.7152 27.0177ZM27.1357 26.0251C27.2437 26.0197 27.3659 26.0182 27.4875 26.0062C27.7201 25.9834 27.8841 25.8682 27.9695 25.6493C28.013 25.5382 28.0112 25.4237 28.0124 25.3081C28.0157 25.0071 27.8372 24.7604 27.5465 24.6584C27.3222 24.5797 27.0908 24.5783 26.8582 24.5845C26.7639 24.587 26.7217 24.6276 26.7204 24.721L26.7064 25.9386C26.7057 25.9869 26.7269 26.0078 26.7747 26.0093L27.1357 26.0251Z" fill="#94795D"/>
<path fill-rule="evenodd" clip-rule="evenodd" d="M3.44676 28.1344L3.4303 28.3438C3.27698 28.3438 3.1356 28.3427 2.99423 28.3443C2.72795 28.3469 2.46166 28.3511 2.19515 28.3549L2.16945 28.3565C2.13134 28.352 2.06212 28.352 2.06032 28.3409C2.04905 28.2786 2.05265 28.2132 2.05558 28.1486C2.05581 28.1413 2.08174 28.132 2.09685 28.1284L2.30406 28.0829C2.43325 28.0499 2.4788 27.9951 2.48489 27.8638C2.49188 27.7158 2.49887 27.5676 2.49954 27.4197C2.50157 27.0555 2.49932 26.6917 2.50089 26.3274C2.50112 26.2422 2.47113 26.1788 2.39041 26.1442C2.2945 26.1023 2.1979 26.0619 2.10068 26.0231C2.05468 26.0049 1.99493 25.9949 2.00034 25.9341C2.00575 25.8722 2.0637 25.856 2.11827 25.8438C2.34419 25.793 2.57034 25.7436 2.79559 25.6894C2.86819 25.6719 2.93764 25.6424 3.02445 25.6127C3.02895 25.6588 3.0373 25.7028 3.0364 25.7467L3.02309 25.9554C3.02287 25.9789 3.03527 26.0104 3.05308 26.0235C3.0639 26.0317 3.1002 26.0169 3.11824 26.0031C3.3108 25.8589 3.51463 25.7345 3.74709 25.6619C4.10717 25.5495 4.4163 25.6537 4.63275 25.9592C4.70896 26.0668 4.70919 26.0668 4.81493 25.9916C4.99644 25.8618 5.18629 25.7473 5.39869 25.6719C5.86497 25.5062 6.31298 25.7165 6.4751 26.1786C6.53417 26.3463 6.55672 26.5195 6.55627 26.6965L6.55198 27.8718C6.55176 27.9687 6.58445 28.0239 6.67825 28.0541C6.78355 28.0881 6.89267 28.1113 7.01127 28.142L6.98377 28.344C6.84893 28.344 6.72492 28.3431 6.60091 28.3443C6.29787 28.3469 5.99484 28.3485 5.69203 28.3554C5.63927 28.3567 5.62551 28.3438 5.62281 28.2952C5.61401 28.1397 5.61266 28.14 5.76147 28.1049L5.81153 28.0923C5.95696 28.0532 6.00544 28.0093 6.00656 27.8642C6.00994 27.4476 6.01874 27.0299 5.99732 26.6142C5.975 26.183 5.62709 25.9534 5.2023 26.0639C5.06519 26.1008 4.93607 26.162 4.82125 26.2445C4.78179 26.2722 4.77435 26.3041 4.7775 26.3527C4.78945 26.5364 4.7969 26.7203 4.79847 26.9042C4.80118 27.226 4.79712 27.5479 4.79847 27.87C4.79892 28.0004 4.84424 28.0503 4.97525 28.0805L5.16983 28.1247L5.2059 28.1326C5.20861 28.1939 5.21109 28.2551 5.20816 28.3163C5.20636 28.3547 5.17614 28.358 5.14232 28.3573C4.95315 28.3527 4.76375 28.3465 4.57458 28.3469C4.34437 28.3474 4.11439 28.3538 3.8844 28.3578H3.83029C3.83029 28.2928 3.82713 28.2307 3.83254 28.1688C3.83367 28.1539 3.86028 28.1331 3.87854 28.1284L4.10537 28.0812C4.20164 28.0579 4.24764 28.0093 4.25305 27.913C4.27876 27.4672 4.29725 27.0211 4.25463 26.5754C4.24424 26.4874 4.21942 26.4016 4.18113 26.3214C4.06501 26.069 3.80368 25.9636 3.50222 26.0395C3.35905 26.0754 3.22985 26.14 3.10764 26.2214C3.081 26.2375 3.05911 26.2603 3.04415 26.2873C3.0292 26.3143 3.02171 26.3448 3.02242 26.3756C3.02242 26.8203 3.02399 27.2651 3.02535 27.7096L3.02783 27.8811C3.03053 28.0007 3.08217 28.0637 3.2028 28.0894C3.28036 28.1067 3.35882 28.1184 3.44676 28.1344Z" fill="#50382B"/>
<path fill-rule="evenodd" clip-rule="evenodd" d="M17.0785 25.6582C17.1134 25.8254 17.1127 25.9758 16.9878 26.0898C16.8638 26.2032 16.7069 26.165 16.5538 26.1398C16.568 26.2192 16.5838 26.2866 16.5914 26.3549C16.6471 26.8627 16.425 27.2396 15.9464 27.455C15.7655 27.5361 15.5736 27.5663 15.3777 27.5818C15.2803 27.5894 15.1951 27.6626 15.1858 27.7413C15.1764 27.8212 15.2273 27.9033 15.3292 27.9272C15.4494 27.9554 15.5748 27.9634 15.6981 27.9774C15.9628 28.0071 16.2304 28.0206 16.492 28.0672C16.8875 28.1373 17.1082 28.4769 17.0385 28.8678C16.9765 29.2156 16.7718 29.4687 16.4864 29.6628C16.0054 29.9906 15.4778 30.0865 14.9159 29.9192C14.5946 29.8234 14.368 29.6155 14.2898 29.2793C14.2506 29.1109 14.2923 28.9585 14.421 28.8443C14.5741 28.7089 14.7407 28.5883 14.9011 28.4605L14.9529 28.4093L14.8934 28.3682C14.7299 28.2919 14.5991 28.1874 14.5484 28.006C14.5311 27.9445 14.5491 27.9042 14.6021 27.8727C14.6923 27.8192 14.782 27.7648 14.8711 27.7096C14.913 27.6839 14.9545 27.6573 14.9935 27.6275C15.0467 27.5876 15.042 27.5579 14.9784 27.5348C14.8305 27.4811 14.699 27.4033 14.5971 27.2835C14.4269 27.0836 14.3786 26.8456 14.3926 26.5943C14.4145 26.2016 14.6312 25.943 14.9834 25.7766C15.4021 25.579 15.8221 25.5666 16.2489 25.7467C16.4068 25.8132 16.5732 25.8274 16.7425 25.8159C16.869 25.807 16.9795 25.76 17.0785 25.6582ZM15.5355 28.4711C15.2212 28.4685 15.1227 28.5066 14.9383 28.6914C14.7317 28.8986 14.7329 29.1859 14.9389 29.3939C15.0954 29.5517 15.2907 29.6255 15.5078 29.6477C15.7615 29.6734 16.0113 29.663 16.2417 29.5381C16.4875 29.4044 16.6097 29.1559 16.5545 28.9057C16.5087 28.6992 16.354 28.6047 16.1657 28.5503C15.9515 28.4887 15.7301 28.4769 15.5355 28.4711ZM14.9182 26.4951C14.9297 26.581 14.9344 26.6679 14.9538 26.752C15.0041 26.9698 15.1004 27.1613 15.3207 27.2582C15.5793 27.3724 15.9096 27.3234 16.0228 26.9663C16.1001 26.7286 16.0911 26.4719 15.9973 26.24C15.9576 26.134 15.886 26.0424 15.7921 25.9774C15.5676 25.8232 15.1624 25.8028 14.9973 26.1435C14.9437 26.2542 14.9227 26.372 14.9182 26.4951Z" fill="#4F382B"/>
<path fill-rule="evenodd" clip-rule="evenodd" d="M11.7458 25.6034C11.7541 25.6413 11.7708 25.6843 11.7713 25.7276C11.7719 25.8099 11.7629 25.8922 11.7582 25.9745V26.0459L11.829 25.9927C12.0229 25.8356 12.2312 25.7019 12.4738 25.6298C12.9117 25.5 13.3491 25.7358 13.4918 26.1746C13.546 26.3414 13.5674 26.5129 13.5694 26.6872C13.5739 27.0745 13.5766 27.4618 13.5807 27.8491C13.582 27.9882 13.5983 28.0131 13.732 28.0532C13.8081 28.0756 13.8857 28.0925 13.9642 28.104C14.0073 28.1107 14.0258 28.1273 14.0235 28.1688L14.024 28.2069C14.0224 28.3673 14.0111 28.3746 13.8531 28.3742C13.4747 28.3735 13.0966 28.3758 12.7182 28.3789C12.6055 28.3798 12.6053 28.3831 12.594 28.2735L12.5918 28.2105C12.5987 28.116 12.601 28.1169 12.6955 28.1031C12.7591 28.0938 12.8222 28.0794 12.8842 28.0634C12.948 28.0472 12.9787 28.0009 12.9872 27.9388C12.9915 27.9073 12.9972 27.8758 12.9969 27.8443C12.9915 27.421 12.9985 26.9973 12.9751 26.5748C12.9561 26.2329 12.691 26.0293 12.3422 26.0526C12.174 26.064 12.0124 26.1211 11.8752 26.2174C11.7821 26.2815 11.7634 26.374 11.7638 26.4736C11.7656 26.8693 11.7694 27.2651 11.7737 27.661C11.7746 27.7478 11.7771 27.8345 11.7855 27.9206C11.7943 28.0146 11.8278 28.0526 11.9216 28.073C12.0114 28.0925 12.1029 28.1038 12.1988 28.1195L12.2069 28.1923C12.21 28.362 12.192 28.3746 12.0245 28.374C11.6333 28.3724 11.2421 28.3749 10.8511 28.3791C10.7895 28.38 10.7634 28.3609 10.765 28.3019L10.7641 28.2766C10.7539 28.1238 10.7584 28.118 10.9054 28.0932L10.9749 28.0794C11.1341 28.0441 11.1749 28.0024 11.1771 27.8434C11.1846 27.3396 11.1873 26.8361 11.1925 26.3323C11.1931 26.26 11.1654 26.2039 11.0969 26.1739C11.0007 26.1325 10.9039 26.0922 10.8067 26.0532C10.753 26.0315 10.6917 26.0177 10.6897 25.9448C10.6883 25.8933 10.7442 25.8478 10.8207 25.8325C10.9742 25.8019 11.1291 25.7764 11.2808 25.7389C11.4319 25.7019 11.5803 25.6522 11.7458 25.6034Z" fill="#4F372B"/>
<path fill-rule="evenodd" clip-rule="evenodd" d="M20.2044 26.9193C20.1972 27.3897 20.073 27.7702 19.7348 28.0557C19.3064 28.4179 18.6381 28.541 18.0917 28.2702C17.8586 28.1546 17.6872 27.9774 17.5756 27.7473C17.4045 27.3935 17.3617 27.0215 17.4509 26.6404C17.5393 26.2635 17.7713 25.9905 18.1186 25.8137C18.4757 25.632 18.8518 25.561 19.2484 25.6564C19.7501 25.7768 20.1106 26.1792 20.1823 26.6917C20.1952 26.7815 20.2001 26.8724 20.2044 26.9193ZM19.6234 27.1741L19.604 27.1719C19.604 27.1275 19.6065 27.0832 19.6035 27.0388C19.5871 26.7624 19.5239 26.4991 19.3612 26.2677C19.2067 26.0486 18.9963 25.9193 18.7226 25.9004C18.4162 25.8791 18.1587 26.0477 18.0683 26.3556C17.9326 26.8179 17.9785 27.2684 18.2171 27.6919C18.321 27.8764 18.475 28.0126 18.6814 28.0843C19.0856 28.2243 19.4441 28.043 19.5494 27.6357C19.5882 27.4853 19.5995 27.3281 19.6234 27.1741Z" fill="#4F382B"/>
<path fill-rule="evenodd" clip-rule="evenodd" d="M10.2732 26.9556C10.2649 27.2932 10.1839 27.6054 9.97197 27.8766C9.74492 28.1672 9.43286 28.3225 9.07797 28.388C8.65836 28.4652 8.26423 28.3951 7.92715 28.118C7.76706 27.9862 7.65771 27.8174 7.58556 27.6253C7.46718 27.3103 7.43765 26.9876 7.51047 26.6586C7.58826 26.3066 7.79029 26.0375 8.10347 25.8569C8.46558 25.6486 8.85633 25.5557 9.27368 25.6493C9.81031 25.77 10.1201 26.114 10.2346 26.6349C10.2576 26.74 10.2608 26.8487 10.2732 26.9556ZM9.68562 27.1783L9.67006 27.1761V27.1127C9.66127 26.803 9.59971 26.508 9.41189 26.2507C9.27278 26.0597 9.08654 25.9399 8.84776 25.9064C8.45859 25.8518 8.20426 26.079 8.11993 26.3875C8.0099 26.7906 8.0444 27.1888 8.21463 27.571C8.32083 27.8092 8.48858 27.9949 8.7463 28.0849C9.14809 28.2254 9.512 28.0395 9.61369 27.6338C9.65112 27.4853 9.6624 27.3305 9.68562 27.1783Z" fill="#4F372B"/>
<path fill-rule="evenodd" clip-rule="evenodd" d="M19.6401 9.74417C19.9167 10.531 20.1156 11.3342 20.1812 12.1665C20.2624 13.1993 20.2254 14.225 20.004 15.2408L19.9756 15.322C19.9061 15.3222 19.8353 15.3135 19.7675 15.324C19.1941 15.4127 18.6214 15.5045 18.0484 15.5959C17.4561 15.6904 16.8634 15.7812 16.2722 15.8819C16.0627 15.9174 15.8034 15.875 15.7188 16.1598L15.6783 16.1733L15.7069 14.4702L15.6778 10.3606L15.9538 10.314C16.405 10.2415 16.8561 10.1676 17.308 10.0969C17.8469 10.0128 18.3862 9.93072 18.9255 9.84865C19.1636 9.81271 19.402 9.77922 19.6401 9.74417Z" fill="#439934"/>
<path fill-rule="evenodd" clip-rule="evenodd" d="M15.1087 21.1387C14.8176 20.8925 14.5164 20.6571 14.2375 20.398C12.7363 19.005 11.638 17.365 11.0971 15.3879C10.948 14.8439 10.8488 14.2909 10.8168 13.7288C10.7943 13.3353 10.762 12.9385 10.7904 12.5469C10.8655 11.5059 11.0186 10.4749 11.3289 9.47199L11.346 9.4487C11.3762 9.48818 11.4195 9.52323 11.4348 9.56782C11.7379 10.4454 12.0384 11.3238 12.3376 12.2029C13.2776 14.9648 14.2165 17.7275 15.1581 20.489C15.1766 20.5429 15.2242 20.587 15.2584 20.6356L15.1087 21.1387Z" fill="#45A538"/>
<path fill-rule="evenodd" clip-rule="evenodd" d="M19.6401 9.74417C19.4017 9.77899 19.1634 9.81271 18.9255 9.84865C18.3862 9.93072 17.8469 10.0128 17.308 10.0969C16.8564 10.1674 16.4052 10.2413 15.9538 10.314L15.6778 10.3606L15.6756 10.1836C15.6663 10.0381 15.651 9.89257 15.649 9.74705L15.6181 6.96225C15.6108 6.38129 15.6 5.80033 15.5881 5.21959C15.582 4.85864 15.5714 4.49777 15.5563 4.13708C15.5473 3.94343 15.5155 3.75066 15.5028 3.557C15.4954 3.44565 15.5053 3.3334 15.5078 3.2216C15.6485 3.48979 15.7863 3.75998 15.9308 4.02617C16.1592 4.44697 16.5233 4.75708 16.8514 5.09537C18.147 6.4332 19.0667 7.98775 19.6401 9.74417Z" fill="#46A037"/>
<path fill-rule="evenodd" clip-rule="evenodd" d="M15.6783 16.1733L15.7188 16.1598C15.8034 15.875 16.0627 15.9174 16.2722 15.8819C16.8634 15.7812 17.4561 15.6904 18.0484 15.5959C18.6214 15.5045 19.1941 15.4127 19.7675 15.324C19.8353 15.3135 19.9061 15.3222 19.9756 15.322C19.8685 15.6982 19.7844 16.0826 19.6484 16.4484C19.494 16.8632 19.3073 17.2683 19.1091 17.6653C18.8122 18.2575 18.4449 18.8128 18.0148 19.3197C17.6843 19.7106 17.3159 20.0724 16.9468 20.4293C16.7425 20.6265 16.5021 20.7873 16.278 20.9648L16.2199 20.9257L16.0108 20.7501L15.7946 20.2833C15.6469 19.7391 15.5662 19.1793 15.5545 18.6161L15.5585 18.5211L15.5881 18.1099C15.5978 17.9695 15.6108 17.8293 15.6169 17.6889C15.6386 17.184 15.6577 16.6787 15.6783 16.1733Z" fill="#409433"/>
<path fill-rule="evenodd" clip-rule="evenodd" d="M15.6783 16.1733C15.658 16.6787 15.6388 17.1842 15.6169 17.6895C15.6108 17.8302 15.598 17.9704 15.5881 18.1105L15.4564 18.1596C15.1637 17.312 14.8708 16.4733 14.5845 15.6325C14.1108 14.2415 13.6429 12.8484 13.1699 11.4569C12.7879 10.3339 12.4032 9.21171 12.0159 8.09046C11.9976 8.03811 11.9458 7.99685 11.9097 7.95049L12.753 6.42499C12.7821 6.47446 12.8202 6.52082 12.8384 6.57406C13.2285 7.7098 13.6179 8.84577 14.0039 9.98285C14.5063 11.4624 15.0052 12.9427 15.5071 14.4225C15.5272 14.4815 15.5601 14.536 15.5917 14.6024L15.7069 14.4702L15.6783 16.1733Z" fill="#4FAA41"/>
<path fill-rule="evenodd" clip-rule="evenodd" d="M11.9097 7.95049C11.946 7.99685 11.9979 8.03811 12.0159 8.09046C12.4032 9.21171 12.7879 10.3339 13.1699 11.4569C13.6429 12.8484 14.1108 14.2415 14.5845 15.6325C14.8708 16.4733 15.1637 17.312 15.4564 18.1596L15.5881 18.1105L15.5583 18.5218L15.5315 18.6165C15.4857 19.0666 15.4472 19.5176 15.3912 19.9668C15.3633 20.1919 15.3038 20.4129 15.2584 20.6356C15.2244 20.587 15.1766 20.5429 15.1581 20.489C14.2163 17.7275 13.2774 14.9648 12.3374 12.2029C12.0383 11.3239 11.7374 10.4456 11.4346 9.56782C11.4193 9.52323 11.376 9.48818 11.3458 9.4487L11.9097 7.95049Z" fill="#4AA73C"/>
<path fill-rule="evenodd" clip-rule="evenodd" d="M15.7069 14.4702L15.5917 14.6024C15.5601 14.536 15.5272 14.4815 15.5071 14.4225C15.0052 12.9427 14.506 11.4624 14.0037 9.98285C13.6172 8.84592 13.2289 7.70965 12.8384 6.57406C12.8202 6.52082 12.7821 6.47446 12.753 6.42499L13.7956 5.0754C13.8285 5.11844 13.8754 5.15681 13.8923 5.20539C14.1818 6.03946 14.4686 6.87419 14.754 7.70958C15.0206 8.48997 15.283 9.27124 15.5527 10.0503C15.5707 10.1024 15.6336 10.1392 15.6756 10.1836L15.6778 10.3606L15.7069 14.4702Z" fill="#57AE47"/>
<path fill-rule="evenodd" clip-rule="evenodd" d="M15.6756 10.1836C15.6334 10.1395 15.5707 10.1026 15.5527 10.0503C15.283 9.27124 15.0206 8.48997 14.754 7.70958C14.4688 6.87418 14.1816 6.03945 13.8923 5.20539C13.8754 5.15681 13.8285 5.11844 13.7956 5.0754C14.1347 4.74865 14.4632 4.41015 14.8161 4.09848C15.1297 3.82164 15.3818 3.52484 15.3935 3.08718L15.4183 3L15.5076 3.22138C15.5053 3.33318 15.4952 3.44543 15.5026 3.55678C15.5155 3.75044 15.5473 3.9432 15.5561 4.13686C15.5725 4.49732 15.5804 4.85846 15.5878 5.21937C15.5998 5.80011 15.6106 6.38107 15.6178 6.96203L15.6487 9.74683C15.651 9.89257 15.6665 10.0381 15.6756 10.1836Z" fill="#60B24F"/>
<path fill-rule="evenodd" clip-rule="evenodd" d="M15.2584 20.6356C15.3038 20.4129 15.3635 20.1917 15.3915 19.9666C15.4474 19.5176 15.4859 19.0664 15.5317 18.6163L15.5432 18.6145L15.5545 18.6165C15.5662 19.1797 15.6469 19.7395 15.7946 20.2838C15.7642 20.3233 15.7216 20.3581 15.7053 20.4025C15.5802 20.7498 15.462 21.1001 15.3362 21.4473C15.3191 21.4947 15.2708 21.5318 15.2372 21.5733L15.1085 21.1385L15.2584 20.6356Z" fill="#A9AA88"/>
<path fill-rule="evenodd" clip-rule="evenodd" d="M15.2372 21.5733C15.2708 21.5318 15.3191 21.4947 15.3362 21.4473C15.462 21.1001 15.5802 20.7498 15.7053 20.4025C15.7216 20.3581 15.7642 20.3233 15.7946 20.2838L16.0108 20.7507C15.9682 20.8102 15.9091 20.8641 15.8855 20.9304L15.4715 22.1265C15.4544 22.1746 15.3964 22.2083 15.3572 22.2489L15.2372 21.5733Z" fill="#B6B598"/>
<path fill-rule="evenodd" clip-rule="evenodd" d="M15.3572 22.2489C15.3962 22.2083 15.4544 22.1746 15.4715 22.1265L15.8855 20.9304C15.9091 20.8641 15.9682 20.8102 16.0108 20.7507L16.2201 20.926C16.1191 21.0242 16.0629 21.1378 16.0967 21.2813L16.0332 21.4861C16.0043 21.5211 15.9624 21.5517 15.9482 21.5919C15.8036 21.9992 15.6659 22.4086 15.5202 22.8157C15.5017 22.8672 15.4505 22.9078 15.4147 22.9535L15.3572 22.2489Z" fill="#C2C1A7"/>
<path fill-rule="evenodd" clip-rule="evenodd" d="M15.4145 22.9532C15.4505 22.9075 15.5017 22.8669 15.52 22.8155C15.6656 22.4084 15.8036 21.9989 15.9479 21.5917C15.9621 21.5515 16.0041 21.5211 16.0329 21.4858L15.9452 22.4255C15.9218 22.4521 15.888 22.4754 15.8767 22.5062L15.5849 23.3288C15.5644 23.3849 15.5252 23.435 15.4945 23.4876C15.4672 23.4526 15.4185 23.4186 15.4163 23.3822C15.4077 23.2398 15.4138 23.0963 15.4145 22.9532Z" fill="#CECDB7"/>
<path fill-rule="evenodd" clip-rule="evenodd" d="M15.4947 23.4878C15.5254 23.4353 15.5646 23.3851 15.5851 23.329L15.8769 22.5065C15.8882 22.4754 15.9222 22.4523 15.9454 22.4257L15.9477 23.0424L15.7378 23.5719L15.4947 23.4878Z" fill="#DBDAC7"/>
<path fill-rule="evenodd" clip-rule="evenodd" d="M15.7378 23.5719L15.9477 23.0424L15.991 23.6688L15.7378 23.5719Z" fill="#EBE9DC"/>
<path fill-rule="evenodd" clip-rule="evenodd" d="M16.0967 21.2813C16.0631 21.138 16.1191 21.0245 16.2201 20.926L16.278 20.9648L16.0967 21.2813Z" fill="#CECDB7"/>
<path fill-rule="evenodd" clip-rule="evenodd" d="M15.5545 18.6165L15.5432 18.6145L15.5317 18.6163L15.5583 18.5218L15.5545 18.6165Z" fill="#4FAA41"/>
<path d="M59.7276 22H57.3912V15.7158C57.3912 15.0371 57.4204 14.2876 57.479 13.4673H57.4204C57.2984 14.1118 57.1885 14.5757 57.0909 14.8589L54.6299 22H52.6963L50.1914 14.9321C50.1231 14.7417 50.0132 14.2534 49.8619 13.4673H49.7959C49.8594 14.5024 49.8912 15.4106 49.8912 16.1919V22H47.7598V11.4971H51.2242L53.3702 17.7227C53.5411 18.2207 53.6656 18.7212 53.7437 19.2241H53.7876C53.9195 18.6431 54.0586 18.1377 54.2051 17.708L56.3511 11.4971H59.7276V22ZM65.9061 22.1831C64.6561 22.1831 63.6722 21.834 62.9545 21.1357C62.2416 20.4326 61.8851 19.4805 61.8851 18.2793C61.8851 17.0391 62.2562 16.0698 62.9984 15.3716C63.7406 14.6685 64.744 14.3169 66.0087 14.3169C67.2538 14.3169 68.2303 14.6685 68.9383 15.3716C69.6463 16.0698 70.0004 16.9951 70.0004 18.1475C70.0004 19.3926 69.6341 20.3765 68.9017 21.0991C68.1742 21.8218 67.1756 22.1831 65.9061 22.1831ZM65.9647 16.0894C65.4178 16.0894 64.993 16.2773 64.6903 16.6533C64.3876 17.0293 64.2362 17.5615 64.2362 18.25C64.2362 19.6904 64.8172 20.4106 65.9794 20.4106C67.0878 20.4106 67.642 19.6709 67.642 18.1914C67.642 16.79 67.0829 16.0894 65.9647 16.0894ZM78.9255 22H76.6183V17.8325C76.6183 16.6704 76.2033 16.0894 75.3732 16.0894C74.9728 16.0894 74.6432 16.2432 74.3845 16.5508C74.1257 16.8584 73.9963 17.249 73.9963 17.7227V22H71.6818V14.5H73.9963V15.6865H74.0256C74.5773 14.7734 75.3805 14.3169 76.4352 14.3169C78.0954 14.3169 78.9255 15.3472 78.9255 17.4077V22ZM88.2974 21.1431C88.2974 22.5347 87.8945 23.6113 87.0889 24.373C86.2832 25.1396 85.1162 25.5229 83.5879 25.5229C82.5771 25.5229 81.7764 25.3789 81.1855 25.0908V23.1426C81.957 23.5918 82.7358 23.8164 83.522 23.8164C84.3032 23.8164 84.9087 23.6089 85.3384 23.1938C85.7681 22.7837 85.9829 22.2246 85.9829 21.5166V20.9233H85.9536C85.4263 21.7632 84.6475 22.1831 83.6172 22.1831C82.6602 22.1831 81.9009 21.8462 81.3394 21.1724C80.7778 20.4985 80.4971 19.5952 80.4971 18.4624C80.4971 17.1929 80.8096 16.1846 81.4346 15.4375C82.0596 14.6904 82.8823 14.3169 83.9028 14.3169C84.8159 14.3169 85.4995 14.6685 85.9536 15.3716H85.9829V14.5H88.2974V21.1431ZM86.0122 18.3965V17.8032C86.0122 17.3296 85.8706 16.9268 85.5874 16.5947C85.3091 16.2578 84.9453 16.0894 84.4961 16.0894C83.9834 16.0894 83.5806 16.2896 83.2876 16.6899C82.9946 17.0903 82.8481 17.6543 82.8481 18.3818C82.8481 19.0068 82.9873 19.5024 83.2656 19.8687C83.5439 20.23 83.9248 20.4106 84.4082 20.4106C84.8867 20.4106 85.2725 20.2275 85.5654 19.8613C85.8633 19.4902 86.0122 19.002 86.0122 18.3965ZM93.9852 22.1831C92.7352 22.1831 91.7513 21.834 91.0335 21.1357C90.3206 20.4326 89.9642 19.4805 89.9642 18.2793C89.9642 17.0391 90.3353 16.0698 91.0775 15.3716C91.8196 14.6685 92.8231 14.3169 94.0877 14.3169C95.3328 14.3169 96.3094 14.6685 97.0174 15.3716C97.7254 16.0698 98.0794 16.9951 98.0794 18.1475C98.0794 19.3926 97.7132 20.3765 96.9808 21.0991C96.2532 21.8218 95.2547 22.1831 93.9852 22.1831ZM94.0438 16.0894C93.4969 16.0894 93.0721 16.2773 92.7694 16.6533C92.4666 17.0293 92.3153 17.5615 92.3153 18.25C92.3153 19.6904 92.8963 20.4106 94.0584 20.4106C95.1668 20.4106 95.721 19.6709 95.721 18.1914C95.721 16.79 95.1619 16.0894 94.0438 16.0894ZM100.252 22V11.4971H103.972C107.703 11.4971 109.568 13.2036 109.568 16.6167C109.568 18.2524 109.058 19.5586 108.037 20.5352C107.022 21.5117 105.667 22 103.972 22H100.252ZM102.617 13.4233V20.0811H103.789C104.815 20.0811 105.618 19.7734 106.199 19.1582C106.785 18.543 107.078 17.7056 107.078 16.646C107.078 15.645 106.787 14.8589 106.206 14.2876C105.63 13.7114 104.819 13.4233 103.775 13.4233H102.617ZM112.019 22V11.4971H115.842C117.014 11.4971 117.915 11.7119 118.544 12.1416C119.174 12.5713 119.489 13.1768 119.489 13.958C119.489 14.5244 119.296 15.02 118.911 15.4448C118.53 15.8696 118.041 16.165 117.446 16.3311V16.3604C118.193 16.4531 118.789 16.729 119.233 17.188C119.682 17.647 119.907 18.2061 119.907 18.8652C119.907 19.8271 119.562 20.5913 118.874 21.1577C118.186 21.7192 117.246 22 116.054 22H112.019ZM114.384 13.2402V15.7305H115.424C115.913 15.7305 116.296 15.6133 116.574 15.3789C116.857 15.1396 116.999 14.8125 116.999 14.3975C116.999 13.626 116.423 13.2402 115.27 13.2402H114.384ZM114.384 17.4883V20.2568H115.666C116.213 20.2568 116.64 20.1299 116.948 19.876C117.26 19.6221 117.416 19.2754 117.416 18.8359C117.416 18.416 117.263 18.0864 116.955 17.8472C116.652 17.6079 116.228 17.4883 115.681 17.4883H114.384Z" fill="white"/>
<path d="M131 0H5C2.23858 0 0 2.23858 0 5V27C0 29.7614 2.23857 32 5 32H131C133.761 32 136 29.7614 136 27V5C136 2.23858 133.761 0 131 0Z" fill="url(#paint0_linear_20_135)"/>
<defs>
<linearGradient id="paint0_linear_20_135" x1="0" y1="0" x2="0" y2="32" gradientUnits="userSpaceOnUse">
<stop stop-color="#BBBBBB" stop-opacity="0.1"/>
<stop offset="1" stop-opacity="0.1"/>
</linearGradient>
</defs>
</svg>
