<svg width="136" height="32" viewBox="0 0 136 32" fill="none" xmlns="http://www.w3.org/2000/svg">
<path d="M131 0H31V32H131C133.761 32 136 29.7614 136 27V5C136 2.23858 133.761 0 131 0Z" fill="#0F1418"/>
<path d="M5 0.5H30.5V31.5H5C2.51472 31.5 0.5 29.4853 0.5 27V5C0.5 2.51472 2.51472 0.5 5 0.5Z" fill="white" stroke="#1C2125"/>
<mask id="mask0_20_274" style="mask-type:alpha" maskUnits="userSpaceOnUse" x="0" y="0" width="31" height="32">
<path d="M5 0.5H30.5V31.5H5C2.51472 31.5 0.5 29.4853 0.5 27V5C0.5 2.51472 2.51472 0.5 5 0.5Z" fill="white" stroke="#1C2125"/>
</mask>
<g mask="url(#mask0_20_274)">
<path d="M3 14V19.9902H3.89822V15.2803L7.21078 19.9926H12.8361V19.0362H9.20608V17.4548H12.125V16.4984H9.20608V14.9589H12.8359V14.0019H8.30766V14.9589H8.30806V19.9484L4.12267 14H3ZM20.2839 14.0023V14.9592H22.1181V19.9933H23.0159V14.9592H24.813V14.0021H20.2839V14.0023ZM13.9216 14.0049L18.1324 19.9956H19.3111L17.2058 17.0023L19.3081 14.0095L18.132 14.0119L16.6169 16.1652L15.0975 14.0051H13.9214L13.9216 14.0049ZM28.1725 17.3992C28.0179 17.3992 27.879 17.429 27.7559 17.4909C27.6336 17.552 27.5369 17.638 27.4662 17.7485C27.3951 17.8592 27.3596 17.9885 27.3596 18.1354C27.3596 18.3144 27.412 18.4572 27.518 18.5649C27.623 18.6728 27.7672 18.753 27.9494 18.8058L28.2013 18.8783C28.2724 18.898 28.3421 18.924 28.4097 18.956C28.4622 18.9797 28.5096 19.0163 28.5485 19.0632C28.5821 19.1082 28.6001 19.166 28.5988 19.2252C28.5993 19.2933 28.579 19.3593 28.5413 19.412C28.5005 19.4684 28.4472 19.5114 28.387 19.5364C28.3134 19.5674 28.2354 19.5826 28.157 19.581C28.0799 19.5822 28.0032 19.5679 27.9303 19.5387C27.867 19.5125 27.8107 19.4679 27.767 19.4092C27.7241 19.3473 27.6991 19.2716 27.6955 19.1927H27.3013C27.3068 19.3578 27.3451 19.4987 27.4162 19.614C27.4873 19.7293 27.586 19.817 27.7128 19.8768C27.8387 19.9372 27.9884 19.9674 28.1601 19.9674C28.3378 19.9674 28.4889 19.9358 28.6137 19.8744C28.739 19.8117 28.8347 19.7249 28.9009 19.6145C28.9673 19.5031 29 19.3754 29 19.229C29 19.1206 28.9817 19.0262 28.946 18.946C28.9105 18.8662 28.8606 18.7959 28.7997 18.7397C28.7363 18.6816 28.666 18.6341 28.5909 18.5986C28.5128 18.5607 28.4319 18.5307 28.3492 18.5091L28.142 18.4509C28.0962 18.4384 28.051 18.4233 28.0065 18.4056C27.964 18.389 27.9233 18.3668 27.8853 18.3393C27.8499 18.3151 27.82 18.2819 27.7979 18.2421C27.7758 18.2018 27.7646 18.1549 27.7658 18.1073C27.766 18.0472 27.7829 17.9888 27.8142 17.9406C27.8458 17.8917 27.8924 17.8531 27.9519 17.8243C28.0203 17.7942 28.0931 17.7797 28.1664 17.7815C28.2852 17.7815 28.3821 17.8108 28.4568 17.8706C28.4929 17.8985 28.5231 17.9353 28.545 17.9784C28.5669 18.0215 28.58 18.0697 28.5834 18.1194H28.9693C28.9693 17.9854 28.9329 17.8549 28.8651 17.7457C28.7975 17.6373 28.7043 17.552 28.5854 17.4909C28.4668 17.4292 28.3295 17.3992 28.1725 17.3992ZM26.5479 17.4327V19.1883C26.5473 19.2759 26.5353 19.3503 26.5121 19.4101C26.4913 19.4666 26.4553 19.5142 26.4093 19.5459C26.3651 19.5768 26.3102 19.5924 26.2462 19.5924C26.1873 19.5924 26.1353 19.5791 26.0896 19.5529C26.0456 19.5281 26.0087 19.4893 25.9836 19.441C25.957 19.388 25.9434 19.3278 25.944 19.2666H25.5453C25.5453 19.4203 25.5751 19.5487 25.636 19.6517C25.6967 19.7549 25.7821 19.8358 25.882 19.8847C25.9924 19.9387 26.1114 19.9657 26.2314 19.9637C26.373 19.9637 26.4977 19.9326 26.6041 19.8707C26.7086 19.8113 26.7958 19.7185 26.8552 19.6035C26.9147 19.4875 26.9454 19.3494 26.9462 19.188V17.4327H26.5479ZM15.7148 17.4464L13.9184 20H15.0975L16.3035 18.284L15.7148 17.4464ZM25.0149 19.4224C24.9491 19.4224 24.893 19.4485 24.8463 19.5005C24.8237 19.5244 24.8058 19.5534 24.7938 19.5858C24.7817 19.6181 24.7758 19.653 24.7764 19.6882C24.7757 19.7237 24.7815 19.7591 24.7935 19.7919C24.8056 19.8247 24.8236 19.8541 24.8463 19.8784C24.893 19.9307 24.9491 19.9565 25.0149 19.9565C25.0559 19.9569 25.0962 19.9443 25.1315 19.9202C25.1674 19.8968 25.1961 19.8644 25.2184 19.8235C25.2403 19.7828 25.252 19.736 25.2521 19.6882C25.2521 19.6529 25.2457 19.618 25.2334 19.5857C25.221 19.5534 25.2029 19.5244 25.1802 19.5005C25.1586 19.4755 25.1329 19.4558 25.1045 19.4423C25.0761 19.4289 25.0456 19.4221 25.0149 19.4224Z" fill="black"/>
</g>
<path d="M69.0879 22H66.7002L62.3716 15.4009C62.1177 15.0151 61.9419 14.7246 61.8443 14.5293H61.815C61.854 14.9004 61.8736 15.4668 61.8736 16.2285V22H59.6397V11.4971H62.1885L66.356 17.8911C66.5464 18.1792 66.7222 18.4648 66.8833 18.748H66.9126C66.8736 18.5039 66.854 18.0229 66.854 17.3052V11.4971H69.0879V22ZM78.4452 18.9092H73.5526C73.6307 19.998 74.3168 20.5425 75.6107 20.5425C76.4359 20.5425 77.161 20.3472 77.786 19.9565V21.6265C77.0926 21.9976 76.1918 22.1831 75.0834 22.1831C73.8724 22.1831 72.9325 21.8486 72.2635 21.1797C71.5946 20.5059 71.2601 19.5684 71.2601 18.3672C71.2601 17.1221 71.6214 16.1357 72.3441 15.4082C73.0668 14.6807 73.9554 14.3169 75.0101 14.3169C76.1039 14.3169 76.9486 14.6416 77.5443 15.291C78.1449 15.9404 78.4452 16.8218 78.4452 17.9351V18.9092ZM76.2992 17.4883C76.2992 16.4141 75.8646 15.877 74.9955 15.877C74.6244 15.877 74.3021 16.0308 74.0287 16.3384C73.7601 16.646 73.5965 17.0293 73.5379 17.4883H76.2992ZM87.2458 14.5L84.7702 18.1328L87.2311 22H84.5651L83.4811 19.9785C83.3932 19.8174 83.2883 19.5903 83.1662 19.2974H83.1369C83.0637 19.5024 82.9636 19.7222 82.8366 19.9565L81.7453 22H79.0866L81.6208 18.2646L79.2404 14.5H81.9211L82.9904 16.6021C83.132 16.8804 83.2321 17.1147 83.2907 17.3052H83.32C83.3981 17.0757 83.5031 16.8364 83.6349 16.5874L84.7262 14.5H87.2458ZM93.0068 21.9121C92.665 22.0928 92.1499 22.1831 91.4614 22.1831C89.8306 22.1831 89.0151 21.3359 89.0151 19.6416V16.2065H87.7993V14.5H89.0151V12.8813L91.3223 12.2222V14.5H93.0068V16.2065H91.3223V19.2388C91.3223 20.02 91.6323 20.4106 92.2524 20.4106C92.4966 20.4106 92.748 20.3398 93.0068 20.1982V21.9121ZM95.5306 22.1831C95.1497 22.1831 94.8323 22.0659 94.5784 21.8315C94.3245 21.5972 94.1976 21.3091 94.1976 20.9673C94.1976 20.6157 94.327 20.3276 94.5858 20.103C94.8494 19.8784 95.1766 19.7661 95.5672 19.7661C95.9627 19.7661 96.285 19.8809 96.534 20.1104C96.7879 20.335 96.9149 20.6206 96.9149 20.9673C96.9149 21.3237 96.7855 21.6167 96.5267 21.8462C96.2728 22.0708 95.9407 22.1831 95.5306 22.1831ZM99.922 13.3135C99.5314 13.3135 99.2116 13.1987 98.9625 12.9692C98.7135 12.7349 98.589 12.4492 98.589 12.1123C98.589 11.7656 98.7135 11.4824 98.9625 11.2627C99.2116 11.043 99.5314 10.9331 99.922 10.9331C100.318 10.9331 100.637 11.043 100.881 11.2627C101.131 11.4824 101.255 11.7656 101.255 12.1123C101.255 12.4639 101.131 12.752 100.881 12.9766C100.637 13.2012 100.318 13.3135 99.922 13.3135ZM101.065 21.8682C101.065 22.9766 100.794 23.8628 100.252 24.5269C99.7096 25.1909 98.9284 25.5229 97.9079 25.5229C97.5709 25.5229 97.2023 25.4497 96.8019 25.3032V23.4868C97.1242 23.6675 97.4098 23.7578 97.6588 23.7578C98.3864 23.7578 98.7501 23.1865 98.7501 22.0439V14.5H101.065V21.8682ZM102.702 21.8022V19.9272C103.083 20.1567 103.461 20.3276 103.837 20.4399C104.218 20.5522 104.577 20.6084 104.914 20.6084C105.324 20.6084 105.646 20.5522 105.881 20.4399C106.12 20.3276 106.24 20.1567 106.24 19.9272C106.24 19.7808 106.186 19.6587 106.079 19.561C105.971 19.4634 105.832 19.3779 105.661 19.3047C105.495 19.2314 105.312 19.1655 105.112 19.1069C104.912 19.0483 104.719 18.9824 104.533 18.9092C104.235 18.7969 103.972 18.6772 103.742 18.5503C103.518 18.4185 103.327 18.2671 103.171 18.0962C103.019 17.9253 102.902 17.7275 102.819 17.5029C102.741 17.2783 102.702 17.0122 102.702 16.7046C102.702 16.2847 102.792 15.9233 102.973 15.6206C103.159 15.3179 103.403 15.0713 103.706 14.8809C104.013 14.6855 104.362 14.5439 104.753 14.4561C105.148 14.3633 105.559 14.3169 105.983 14.3169C106.315 14.3169 106.652 14.3438 106.994 14.3975C107.336 14.4463 107.673 14.5195 108.005 14.6172V16.4043C107.712 16.2334 107.397 16.1064 107.06 16.0234C106.728 15.9355 106.401 15.8916 106.079 15.8916C105.927 15.8916 105.783 15.9062 105.646 15.9355C105.515 15.96 105.397 15.999 105.295 16.0527C105.192 16.1016 105.112 16.1675 105.053 16.2505C104.995 16.3286 104.965 16.4189 104.965 16.5215C104.965 16.6582 105.009 16.7754 105.097 16.873C105.185 16.9707 105.3 17.0562 105.441 17.1294C105.583 17.1978 105.739 17.2612 105.91 17.3198C106.086 17.3735 106.259 17.4297 106.43 17.4883C106.738 17.5957 107.016 17.7129 107.265 17.8398C107.514 17.9668 107.727 18.1157 107.902 18.2866C108.083 18.4575 108.22 18.6577 108.312 18.8872C108.41 19.1167 108.459 19.3901 108.459 19.7075C108.459 20.1519 108.361 20.5327 108.166 20.8501C107.976 21.1626 107.719 21.4189 107.397 21.6191C107.08 21.8145 106.711 21.9561 106.291 22.0439C105.876 22.1367 105.444 22.1831 104.995 22.1831C104.169 22.1831 103.405 22.0562 102.702 21.8022Z" fill="white"/>
<path d="M131 0H5C2.23858 0 0 2.23858 0 5V27C0 29.7614 2.23857 32 5 32H131C133.761 32 136 29.7614 136 27V5C136 2.23858 133.761 0 131 0Z" fill="url(#paint0_linear_20_274)"/>
<defs>
<linearGradient id="paint0_linear_20_274" x1="0" y1="0" x2="0" y2="32" gradientUnits="userSpaceOnUse">
<stop stop-color="#BBBBBB" stop-opacity="0.1"/>
<stop offset="1" stop-opacity="0.1"/>
</linearGradient>
</defs>
</svg>
