<svg width="136" height="32" viewBox="0 0 136 32" fill="none" xmlns="http://www.w3.org/2000/svg">
<path d="M131 0H31V32H131C133.761 32 136 29.7614 136 27V5C136 2.23858 133.761 0 131 0Z" fill="#0F1418"/>
<path d="M5 0.5H30.5V31.5H5C2.51472 31.5 0.5 29.4853 0.5 27V5C0.5 2.51472 2.51472 0.5 5 0.5Z" fill="white" stroke="#1C2125"/>
<mask id="mask0_20_153" style="mask-type:alpha" maskUnits="userSpaceOnUse" x="0" y="0" width="31" height="32">
<path d="M5 0.5H30.5V31.5H5C2.51472 31.5 0.5 29.4853 0.5 27V5C0.5 2.51472 2.51472 0.5 5 0.5Z" fill="white" stroke="#1C2125"/>
</mask>
<g mask="url(#mask0_20_153)">
<path d="M21.0151 20.4601C19.1869 24.2455 15.9856 26.7924 11.7503 27.6297C11.1009 27.7908 10.4343 27.8696 9.76571 27.8642C7.32815 27.8642 5.09371 26.8356 4.009 25.1507C2.55255 22.9062 2.05692 18.1477 6.85892 14.6277C6.95642 15.1647 7.15549 15.9012 7.28752 16.3373C6.34486 17.0466 5.57326 17.9631 5.03074 19.0179C4.13697 20.7954 4.2365 22.5709 5.29481 24.2126C6.02608 25.3194 7.18393 25.9921 8.67287 26.1978C10.5326 26.4362 12.4193 26.0764 14.066 25.1692C16.6478 23.7949 18.3683 22.1532 19.4936 19.9087C19.1754 19.5757 18.9871 19.1372 18.9634 18.6744C18.9464 18.1777 19.1247 17.6945 19.459 17.3308C19.7934 16.9671 20.2566 16.7526 20.7469 16.7344H20.816C21.2929 16.7319 21.7525 16.9153 22.0997 17.2465C22.4469 17.5777 22.6551 18.0314 22.6812 18.5138C22.7073 18.9961 22.5493 19.4701 22.2399 19.8377C21.9306 20.2054 21.4935 20.4385 21.0191 20.4889L21.0151 20.4601ZM26.8388 16.3044C29.319 19.1517 29.3861 22.503 28.4273 24.4471C27.5335 26.2225 25.1772 28 22.0084 28C20.5291 27.9694 19.0739 27.615 17.7426 26.9611C18.2078 26.6257 18.868 26.0888 19.2316 25.7535C20.2582 26.2039 21.363 26.4431 22.4817 26.457C24.5333 26.457 26.0872 25.486 27.0135 23.7106C27.6087 22.5379 27.6432 21.1637 27.0805 19.7565C26.3901 17.986 25.1615 16.4838 23.5725 15.4671C21.4877 14.0437 19.03 13.285 16.5157 13.2884H15.9206C15.7818 13.6131 15.556 13.892 15.2688 14.0934C14.9816 14.2948 14.6444 14.4108 14.2955 14.4282H14.2325C13.7499 14.4222 13.2887 14.2258 12.9467 13.8809C12.6047 13.536 12.4089 13.0696 12.401 12.5809C12.3931 12.0921 12.5736 11.6195 12.9042 11.2634C13.2348 10.9073 13.6895 10.6957 14.1716 10.6736H14.2386C14.5746 10.6739 14.9041 10.7679 15.1907 10.9454C15.4774 11.1229 15.7102 11.3769 15.8637 11.6796H16.3939C20.619 11.6796 24.3281 13.3213 26.8388 16.3044ZM10.0298 21.0361C9.99499 20.6945 10.0767 20.3511 10.2613 20.063C8.4088 16.8125 7.41752 12.6918 8.93897 8.4024C10.0298 5.17865 12.7761 3 15.754 3C18.9309 3 22.2399 5.81641 22.636 11.2435C22.1404 11.0769 21.4173 10.832 20.9826 10.7415C20.8749 8.9661 19.3941 4.54296 15.886 4.60879C14.6286 4.64376 12.7761 5.24654 11.8234 6.48502C10.645 7.96342 9.95945 9.78201 9.86524 11.6796C9.64195 14.2816 10.2447 16.8879 11.5858 19.1187C11.6598 19.0913 11.7387 19.0801 11.8173 19.0858H11.8823C12.3737 19.0768 12.8484 19.2659 13.2021 19.6114C13.5558 19.9569 13.7595 20.4305 13.7684 20.9281C13.7773 21.4257 13.5906 21.9065 13.2495 22.2648C12.9084 22.623 12.4407 22.8293 11.9494 22.8383H11.8823C11.403 22.8366 10.9428 22.6476 10.5977 22.3107C10.2526 21.9738 10.0491 21.515 10.0298 21.03V21.0361Z" fill="#764ABC"/>
</g>
<path d="M71.055 22H68.3378L66.7045 19.2974C66.5824 19.0923 66.4652 18.9092 66.3529 18.748C66.2406 18.5869 66.1258 18.4502 66.0087 18.3379C65.8963 18.2207 65.7767 18.1328 65.6498 18.0742C65.5277 18.0107 65.3934 17.979 65.2469 17.979H64.6097V22H62.244V11.4971H65.994C68.5428 11.4971 69.8172 12.4492 69.8172 14.3535C69.8172 14.7197 69.7611 15.0591 69.6488 15.3716C69.5365 15.6792 69.3778 15.9575 69.1727 16.2065C68.9676 16.4556 68.7186 16.6704 68.4256 16.8511C68.1376 17.0317 67.8153 17.1733 67.4588 17.2759V17.3052C67.6151 17.354 67.7665 17.4346 67.9129 17.5469C68.0594 17.6543 68.201 17.7812 68.3378 17.9277C68.4745 18.0742 68.6039 18.2329 68.7259 18.4038C68.8529 18.5698 68.9676 18.7334 69.0702 18.8945L71.055 22ZM64.6097 13.2695V16.1919H65.6351C66.1429 16.1919 66.5506 16.0454 66.8583 15.7524C67.1708 15.4546 67.327 15.0859 67.327 14.6465C67.327 13.7285 66.7777 13.2695 65.6791 13.2695H64.6097ZM78.6179 18.9092H73.7253C73.8034 19.998 74.4894 20.5425 75.7834 20.5425C76.6086 20.5425 77.3337 20.3472 77.9587 19.9565V21.6265C77.2653 21.9976 76.3644 22.1831 75.256 22.1831C74.0451 22.1831 73.1052 21.8486 72.4362 21.1797C71.7673 20.5059 71.4328 19.5684 71.4328 18.3672C71.4328 17.1221 71.7941 16.1357 72.5168 15.4082C73.2394 14.6807 74.1281 14.3169 75.1828 14.3169C76.2765 14.3169 77.1213 14.6416 77.717 15.291C78.3176 15.9404 78.6179 16.8218 78.6179 17.9351V18.9092ZM76.4719 17.4883C76.4719 16.4141 76.0373 15.877 75.1681 15.877C74.7971 15.877 74.4748 16.0308 74.2013 16.3384C73.9328 16.646 73.7692 17.0293 73.7106 17.4883H76.4719ZM87.5137 22H85.1992V20.9673H85.1699C84.6426 21.7778 83.8687 22.1831 82.8481 22.1831C81.9106 22.1831 81.1562 21.8535 80.585 21.1943C80.0137 20.5303 79.728 19.605 79.728 18.4185C79.728 17.1782 80.043 16.1846 80.6729 15.4375C81.3027 14.6904 82.1279 14.3169 83.1484 14.3169C84.1152 14.3169 84.7891 14.6636 85.1699 15.3569H85.1992V10.8965H87.5137V22ZM85.2432 18.3525V17.7886C85.2432 17.3003 85.1016 16.895 84.8184 16.5728C84.5352 16.2505 84.1665 16.0894 83.7124 16.0894C83.1997 16.0894 82.7993 16.292 82.5112 16.6973C82.2231 17.0977 82.0791 17.6494 82.0791 18.3525C82.0791 19.0117 82.2183 19.5195 82.4966 19.876C82.7749 20.2324 83.1606 20.4106 83.6538 20.4106C84.1226 20.4106 84.5034 20.2227 84.7964 19.8467C85.0942 19.4707 85.2432 18.9727 85.2432 18.3525ZM96.7684 22H94.4613V20.8574H94.4246C93.8533 21.7412 93.0892 22.1831 92.1321 22.1831C90.3939 22.1831 89.5247 21.1309 89.5247 19.0264V14.5H91.8319V18.8213C91.8319 19.8809 92.2518 20.4106 93.0916 20.4106C93.5067 20.4106 93.8387 20.2666 94.0877 19.9785C94.3367 19.6855 94.4613 19.29 94.4613 18.792V14.5H96.7684V22ZM106.148 14.5L103.672 18.1328L106.133 22H103.467L102.383 19.9785C102.295 19.8174 102.19 19.5903 102.068 19.2974H102.039C101.965 19.5024 101.865 19.7222 101.738 19.9565L100.647 22H97.9884L100.523 18.2646L98.1422 14.5H100.823L101.892 16.6021C102.034 16.8804 102.134 17.1147 102.193 17.3052H102.222C102.3 17.0757 102.405 16.8364 102.537 16.5874L103.628 14.5H106.148Z" fill="white"/>
<path d="M131 0H5C2.23858 0 0 2.23858 0 5V27C0 29.7614 2.23857 32 5 32H131C133.761 32 136 29.7614 136 27V5C136 2.23858 133.761 0 131 0Z" fill="url(#paint0_linear_20_153)"/>
<defs>
<linearGradient id="paint0_linear_20_153" x1="0" y1="0" x2="0" y2="32" gradientUnits="userSpaceOnUse">
<stop stop-color="#BBBBBB" stop-opacity="0.1"/>
<stop offset="1" stop-opacity="0.1"/>
</linearGradient>
</defs>
</svg>
