<svg width="136" height="32" viewBox="0 0 136 32" fill="none" xmlns="http://www.w3.org/2000/svg">
<path d="M131 0H31V32H131C133.761 32 136 29.7614 136 27V5C136 2.23858 133.761 0 131 0Z" fill="#0F1418"/>
<path d="M5 0.5H30.5V31.5H5C2.51472 31.5 0.5 29.4853 0.5 27V5C0.5 2.51472 2.51472 0.5 5 0.5Z" fill="white" stroke="#1C2125"/>
<mask id="mask0_20_2" style="mask-type:alpha" maskUnits="userSpaceOnUse" x="0" y="0" width="31" height="32">
<path d="M5 0.5H30.5V31.5H5C2.51472 31.5 0.5 29.4853 0.5 27V5C0.5 2.51472 2.51472 0.5 5 0.5Z" fill="white" stroke="#1C2125"/>
</mask>
<g mask="url(#mask0_20_2)">
<path d="M0 16V32H31V0H0V16ZM24.981 14.72C25.7235 14.8979 26.3984 15.2987 26.9204 15.872C27.2078 16.1809 27.4576 16.5247 27.6644 16.896C27.6644 16.937 26.3252 17.8714 25.5093 18.3936C25.4795 18.4141 25.3605 18.281 25.229 18.0787C25.0801 17.8134 24.8685 17.5914 24.6139 17.4334C24.3593 17.2753 24.0701 17.1865 23.7733 17.175C22.8334 17.1085 22.2282 17.6179 22.2332 18.455C22.2254 18.6635 22.2717 18.8702 22.3671 19.0541C22.573 19.497 22.9574 19.7606 24.1626 20.2982C26.3822 21.2838 27.3321 21.9341 27.9223 22.8582C28.582 23.8822 28.7283 25.536 28.2819 26.7597C27.7859 28.0909 26.5707 28.9946 24.8521 29.2941C24.0671 29.3869 23.274 29.3783 22.4911 29.2685C21.2912 29.0643 20.1859 28.4696 19.3366 27.5712C19.0514 27.2461 18.4958 26.3987 18.5306 26.3373C18.6211 26.2679 18.7164 26.2054 18.8158 26.1504L19.964 25.495L20.8543 24.9626L21.0403 25.2467C21.3542 25.7102 21.7537 26.1052 22.2158 26.409C23.2078 26.9466 24.5619 26.8723 25.2315 26.2502C25.4563 26.0223 25.5966 25.7202 25.6279 25.3965C25.6591 25.0728 25.5794 24.748 25.4026 24.4787C25.1546 24.1229 24.6586 23.8234 23.2723 23.1987C21.6727 22.487 20.9833 22.0467 20.3534 21.3453C19.9601 20.8824 19.6698 20.3363 19.5027 19.7453C19.3781 19.0701 19.3597 18.3785 19.4482 17.6973C19.778 16.1024 20.9362 14.9888 22.6275 14.6586C23.4108 14.5585 24.2042 14.581 24.981 14.7251V14.72ZM17.7047 16.0614V17.3722H13.6797V29.207H10.8252V17.3696H6.79024V16.0896C6.77767 15.6482 6.78761 15.2064 6.82 14.7661C6.83984 14.743 9.3 14.743 12.276 14.743H17.6898L17.7047 16.0614Z" fill="#007ACC"/>
</g>
<path d="M54.836 13.4233H51.8404V22H49.4673V13.4233H46.4864V11.4971H54.836V13.4233ZM62.9335 14.5L59.8866 22.6006C59.1542 24.5488 58.0507 25.5229 56.5761 25.5229C56.0145 25.5229 55.5531 25.4595 55.1918 25.3325V23.4868C55.4994 23.6675 55.8339 23.7578 56.1952 23.7578C56.7909 23.7578 57.2059 23.4771 57.4403 22.9155L57.8358 21.9854L54.7889 14.5H57.3524L58.7513 19.063C58.8392 19.3462 58.9076 19.6807 58.9564 20.0664H58.9857C59.0297 19.7832 59.1102 19.4536 59.2274 19.0776L60.641 14.5H62.9335ZM66.3874 21.1284H66.3581V25.4497H64.0437V14.5H66.3581V15.6279H66.3874C66.9587 14.7539 67.7619 14.3169 68.7971 14.3169C69.7687 14.3169 70.5183 14.6514 71.0456 15.3203C71.5778 15.9844 71.8439 16.8901 71.8439 18.0376C71.8439 19.2876 71.5339 20.291 70.9138 21.0479C70.2985 21.8047 69.4782 22.1831 68.4528 22.1831C67.5495 22.1831 66.861 21.8315 66.3874 21.1284ZM66.3215 18.0522V18.6528C66.3215 19.1704 66.4582 19.5928 66.7316 19.9199C67.0051 20.2471 67.364 20.4106 67.8083 20.4106C68.3356 20.4106 68.7434 20.208 69.0314 19.8027C69.3244 19.3926 69.4709 18.814 69.4709 18.0669C69.4709 16.7485 68.9582 16.0894 67.9328 16.0894C67.4592 16.0894 67.071 16.27 66.7683 16.6313C66.4704 16.9878 66.3215 17.4614 66.3215 18.0522ZM80.2637 18.9092H75.3711C75.4492 19.998 76.1353 20.5425 77.4292 20.5425C78.2544 20.5425 78.9795 20.3472 79.6045 19.9565V21.6265C78.9112 21.9976 78.0103 22.1831 76.9019 22.1831C75.6909 22.1831 74.751 21.8486 74.0821 21.1797C73.4131 20.5059 73.0786 19.5684 73.0786 18.3672C73.0786 17.1221 73.44 16.1357 74.1626 15.4082C74.8853 14.6807 75.7739 14.3169 76.8286 14.3169C77.9224 14.3169 78.7671 14.6416 79.3628 15.291C79.9634 15.9404 80.2637 16.8218 80.2637 17.9351V18.9092ZM78.1177 17.4883C78.1177 16.4141 77.6831 15.877 76.814 15.877C76.4429 15.877 76.1206 16.0308 75.8472 16.3384C75.5786 16.646 75.4151 17.0293 75.3565 17.4883H78.1177ZM81.3299 21.8022V19.9272C81.7108 20.1567 82.0892 20.3276 82.4652 20.4399C82.846 20.5522 83.2049 20.6084 83.5418 20.6084C83.952 20.6084 84.2743 20.5522 84.5086 20.4399C84.7479 20.3276 84.8675 20.1567 84.8675 19.9272C84.8675 19.7808 84.8138 19.6587 84.7064 19.561C84.599 19.4634 84.4598 19.3779 84.2889 19.3047C84.1229 19.2314 83.9398 19.1655 83.7396 19.1069C83.5394 19.0483 83.3465 18.9824 83.161 18.9092C82.8631 18.7969 82.5995 18.6772 82.37 18.5503C82.1454 18.4185 81.9549 18.2671 81.7987 18.0962C81.6473 17.9253 81.5301 17.7275 81.4471 17.5029C81.369 17.2783 81.3299 17.0122 81.3299 16.7046C81.3299 16.2847 81.4203 15.9233 81.6009 15.6206C81.7865 15.3179 82.0306 15.0713 82.3333 14.8809C82.641 14.6855 82.9901 14.5439 83.3807 14.4561C83.7762 14.3633 84.1864 14.3169 84.6112 14.3169C84.9432 14.3169 85.2801 14.3438 85.6219 14.3975C85.9637 14.4463 86.3006 14.5195 86.6327 14.6172V16.4043C86.3397 16.2334 86.0247 16.1064 85.6878 16.0234C85.3558 15.9355 85.0287 15.8916 84.7064 15.8916C84.555 15.8916 84.411 15.9062 84.2743 15.9355C84.1424 15.96 84.0252 15.999 83.9227 16.0527C83.8202 16.1016 83.7396 16.1675 83.681 16.2505C83.6224 16.3286 83.5931 16.4189 83.5931 16.5215C83.5931 16.6582 83.6371 16.7754 83.7249 16.873C83.8128 16.9707 83.9276 17.0562 84.0692 17.1294C84.2108 17.1978 84.367 17.2612 84.5379 17.3198C84.7137 17.3735 84.8871 17.4297 85.0579 17.4883C85.3656 17.5957 85.6439 17.7129 85.8929 17.8398C86.1419 17.9668 86.3543 18.1157 86.5301 18.2866C86.7108 18.4575 86.8475 18.6577 86.9403 18.8872C87.0379 19.1167 87.0868 19.3901 87.0868 19.7075C87.0868 20.1519 86.9891 20.5327 86.7938 20.8501C86.6034 21.1626 86.347 21.4189 86.0247 21.6191C85.7074 21.8145 85.3387 21.9561 84.9188 22.0439C84.5037 22.1367 84.0716 22.1831 83.6224 22.1831C82.7972 22.1831 82.033 22.0562 81.3299 21.8022ZM94.2907 21.729C93.7682 22.0317 93.0138 22.1831 92.0275 22.1831C90.8752 22.1831 89.9425 21.834 89.2296 21.1357C88.5168 20.4375 88.1603 19.5366 88.1603 18.4331C88.1603 17.1587 88.5412 16.1553 89.3029 15.4229C90.0695 14.6855 91.0924 14.3169 92.3717 14.3169C93.2555 14.3169 93.8952 14.4341 94.2907 14.6685V16.6313C93.8073 16.27 93.2677 16.0894 92.672 16.0894C92.008 16.0894 91.4806 16.2847 91.09 16.6753C90.7043 17.061 90.5114 17.5957 90.5114 18.2793C90.5114 18.9434 90.6969 19.4658 91.068 19.8467C91.4391 20.2227 91.9494 20.4106 92.5988 20.4106C93.175 20.4106 93.7389 20.23 94.2907 19.8687V21.729ZM100.887 16.5874C100.608 16.436 100.284 16.3604 99.9126 16.3604C99.4096 16.3604 99.0166 16.5459 98.7334 16.917C98.4502 17.2832 98.3086 17.7837 98.3086 18.4185V22H95.9941V14.5H98.3086V15.8916H98.3379C98.7041 14.876 99.3633 14.3682 100.315 14.3682C100.56 14.3682 100.75 14.3975 100.887 14.4561V16.5874ZM103.381 13.3135C102.991 13.3135 102.671 13.1987 102.422 12.9692C102.173 12.7349 102.048 12.4492 102.048 12.1123C102.048 11.7656 102.173 11.4824 102.422 11.2627C102.671 11.043 102.991 10.9331 103.381 10.9331C103.777 10.9331 104.096 11.043 104.341 11.2627C104.59 11.4824 104.714 11.7656 104.714 12.1123C104.714 12.4639 104.59 12.752 104.341 12.9766C104.096 13.2012 103.777 13.3135 103.381 13.3135ZM104.524 22H102.209V14.5H104.524V22ZM108.996 21.1284H108.966V25.4497H106.652V14.5H108.966V15.6279H108.996C109.567 14.7539 110.37 14.3169 111.405 14.3169C112.377 14.3169 113.127 14.6514 113.654 15.3203C114.186 15.9844 114.452 16.8901 114.452 18.0376C114.452 19.2876 114.142 20.291 113.522 21.0479C112.907 21.8047 112.087 22.1831 111.061 22.1831C110.158 22.1831 109.469 21.8315 108.996 21.1284ZM108.93 18.0522V18.6528C108.93 19.1704 109.067 19.5928 109.34 19.9199C109.613 20.2471 109.972 20.4106 110.417 20.4106C110.944 20.4106 111.352 20.208 111.64 19.8027C111.933 19.3926 112.079 18.814 112.079 18.0669C112.079 16.7485 111.567 16.0894 110.541 16.0894C110.067 16.0894 109.679 16.27 109.377 16.6313C109.079 16.9878 108.93 17.4614 108.93 18.0522ZM120.667 21.9121C120.326 22.0928 119.81 22.1831 119.122 22.1831C117.491 22.1831 116.676 21.3359 116.676 19.6416V16.2065H115.46V14.5H116.676V12.8813L118.983 12.2222V14.5H120.667V16.2065H118.983V19.2388C118.983 20.02 119.293 20.4106 119.913 20.4106C120.157 20.4106 120.409 20.3398 120.667 20.1982V21.9121Z" fill="white"/>
<path d="M131 0H5C2.23858 0 0 2.23858 0 5V27C0 29.7614 2.23857 32 5 32H131C133.761 32 136 29.7614 136 27V5C136 2.23858 133.761 0 131 0Z" fill="url(#paint0_linear_20_2)"/>
<defs>
<linearGradient id="paint0_linear_20_2" x1="0" y1="0" x2="0" y2="32" gradientUnits="userSpaceOnUse">
<stop stop-color="#BBBBBB" stop-opacity="0.1"/>
<stop offset="1" stop-opacity="0.1"/>
</linearGradient>
</defs>
</svg>
